<?xml version="1.0" encoding="utf-8"?>
<!-- Generator: Adobe Illustrator 16.0.0, SVG Export Plug-In . SVG Version: 6.00 Build 0)  -->
<!DOCTYPE svg PUBLIC "-//W3C//DTD SVG 1.1//EN" "http://www.w3.org/Graphics/SVG/1.1/DTD/svg11.dtd">
<svg version="1.1" id="图层_1" xmlns="http://www.w3.org/2000/svg" xmlns:xlink="http://www.w3.org/1999/xlink" x="0px" y="0px"
	 width="64px" height="64px" viewBox="0 0 64 64" enable-background="new 0 0 64 64" xml:space="preserve">
<path d="M23.734,24.881c-1.602-0.318-3.093,0.977-3.093,2.611v5.529c0,1.119,0.779,2.018,1.832,2.413
	c1.997,0.746,3.434,2.676,3.434,4.937c0,2.906-2.358,5.265-5.265,5.265s-5.265-2.358-5.265-5.265V13.166
	c0-1.459-1.174-2.633-2.633-2.633H7.478c-1.459,0-2.633,1.174-2.633,2.633V40.37c0,9.816,9.006,17.573,19.196,15.434
	c5.967-1.251,10.783-6.078,12.034-12.034C37.983,34.677,32.016,26.526,23.734,24.881z M27.771,0.002
	c-1.01-0.055-1.865,0.746-1.865,1.755v3.466c0,0.932,0.724,1.7,1.646,1.744C41.745,7.736,53.154,19.254,53.977,33.46
	c0.055,0.92,0.823,1.645,1.744,1.645h3.521c1.01,0,1.811-0.855,1.755-1.864C60.065,15.337,45.673,0.946,27.771,0.002z
	 M27.804,10.533c-1.02-0.077-1.897,0.735-1.897,1.766v3.521c0,0.921,0.713,1.678,1.623,1.744
	c8.424,0.691,15.139,7.481,15.895,15.928c0.089,0.91,0.834,1.612,1.744,1.612h3.533c1.02,0,1.843-0.878,1.766-1.897
	C49.545,21.129,39.882,11.466,27.804,10.533z"/>
</svg>
