<?xml version="1.0" standalone="no"?><!DOCTYPE svg PUBLIC "-//W3C//DTD SVG 1.1//EN" "http://www.w3.org/Graphics/SVG/1.1/DTD/svg11.dtd"><svg t="1660478332605" class="icon" viewBox="0 0 1024 1024" version="1.1" xmlns="http://www.w3.org/2000/svg" p-id="7378" xmlns:xlink="http://www.w3.org/1999/xlink" width="64" height="64"><defs><style type="text/css">@font-face { font-family: feedback-iconfont; src: url("//at.alicdn.com/t/font_1031158_u69w8yhxdu.woff2?t=1630033759944") format("woff2"), url("//at.alicdn.com/t/font_1031158_u69w8yhxdu.woff?t=1630033759944") format("woff"), url("//at.alicdn.com/t/font_1031158_u69w8yhxdu.ttf?t=1630033759944") format("truetype"); }
</style></defs><path d="M385.5 941c-19.882 0-36-16.118-36-36 0-19.683 15.797-35.677 35.405-35.995l0.595-0.005H476V740H122c-19.683 0-35.677-15.797-36-35.405V137c0-19.683 15.797-35.677 35.405-36H902c19.683 0 35.677 15.797 36 35.405V704c0 19.683-15.797 35.677-35.405 35.995L902 740H640c-19.882 0-36-16.118-36-36 0-19.683 15.797-35.677 35.405-35.995L640 668h226V173H158v495h354c19.683 0 35.677 15.797 35.995 35.405L548 704v165h99.5c19.882 0 36 16.118 36 36 0 19.683-15.797 35.677-35.405 35.995l-0.595 0.005h-262zM512 240c59.094 0 107 47.906 107 107 0 23.789-7.763 45.765-20.895 63.532C651.762 440.77 688 498.402 688 564.5c0 19.882-16.118 36-36 36-19.683 0-35.677-15.797-35.995-35.405L616 564.5c0-57.742-46.591-104.5-104-104.5-56.835 0-103.067 45.827-103.986 102.771L408 564.5c0 19.882-16.118 36-36 36s-36-16.118-36-36c0-66.097 36.238-123.73 89.895-153.972C412.763 392.765 405 370.789 405 347c0-59.094 47.906-107 107-107z m0 65.846c-22.465 0-40.814 18.35-40.814 41.154 0 21.722 16.648 39.401 37.644 41.031 1.054-0.022 2.11-0.031 3.17-0.031s2.116 0.01 3.17 0.028c20.996-1.627 37.644-19.306 37.644-41.028 0-22.804-18.35-41.154-40.814-41.154z" p-id="7379"></path></svg>