<?xml version="1.0" encoding="utf-8"?>
<!-- Generator: Adobe Illustrator 16.0.0, SVG Export Plug-In . SVG Version: 6.00 Build 0)  -->
<!DOCTYPE svg PUBLIC "-//W3C//DTD SVG 1.1//EN" "http://www.w3.org/Graphics/SVG/1.1/DTD/svg11.dtd">
<svg version="1.1" id="Layer_1" xmlns="http://www.w3.org/2000/svg" xmlns:xlink="http://www.w3.org/1999/xlink" x="0px" y="0px"
	 width="850.426px" height="347.76px" viewBox="0 0 850.426 347.76" enable-background="new 0 0 850.426 347.76"
	 xml:space="preserve">
<rect y="1.21" fill="#EEDFF7" width="850.426" height="347.76"/>
<g>
	<path fill="#EEDFF7" d="M158.063,69.245c3.884-3.267,9.982-0.617,11.048,4.107c2.44,5.791-1.528,15.394-8.945,13.151
		C153.675,83.77,153.227,73.759,158.063,69.245z"/>
	<path fill="#EEDFF7" d="M158.974,217.242c11.75-3.968,13.866,18.043,2.734,18.604C152.792,235.412,151.825,220.887,158.974,217.242
		z"/>
</g>
<g>
	<g>
		<path fill="#906DC9" d="M159.213,65.768c8.342-3,15.563,6.071,13.572,13.894c-0.575,6.786-8.398,11.973-14.679,8.805
			C148.88,84.611,149.651,68.754,159.213,65.768z M158.063,69.245c-4.837,4.514-4.388,14.525,2.103,17.259
			c7.417,2.243,11.385-7.36,8.945-13.151C168.046,68.628,161.947,65.979,158.063,69.245z"/>
	</g>
	<g>
		<path fill="#906DC9" d="M158.344,94.733l2.145-0.028c0.056,10.432,0.014,20.863-0.252,31.307c0.756-0.546,2.271-1.612,3.028-2.145
			c1.29,0.575,2.58,1.164,3.87,1.752c-0.028-10.291,0.126-20.582,0.084-30.873l2.299-0.084c0.238,10.768-0.224,21.507-0.336,32.274
			c12.87,7.641,25.867,15.085,38.766,22.699c-0.015,16.516-0.098,33.045-0.281,49.561c13.909,8.216,27.873,16.306,41.822,24.438
			c14.286-8.384,28.713-16.558,43.168-24.662c14.329,8.637,28.966,16.768,43.238,25.503c1.15,4.375,0.309,9.071,0.519,13.572
			c-0.224,12.548-0.07,25.096-0.154,37.658c-14.791,8.23-29.302,16.993-44.206,24.97c-14.903-7.921-29.134-17.147-43.981-25.222
			c-0.225-16.572,0.154-33.158,0.267-49.729c-13.951-8.118-27.69-16.67-41.935-24.241c-9.436,4.669-18.437,10.235-27.564,15.521
			c-0.504-0.646-1.009-1.304-1.514-1.949c8.173-4.613,16.319-9.295,24.507-13.88c1.275-0.968,3.757-1.514,3.35-3.617
			c0.071-15.464,0.084-30.957,0.084-46.435c-13.515-8.594-27.732-16.109-41.332-24.605c-14.104,7.935-28.166,15.969-42.214,24.017
			c-0.182,16.011-0.14,32.036-0.392,48.047c9.309,5.846,19.32,10.641,28.166,17.203c-1.949,0.379-3.729,0.028-5.356-1.08
			c-8.019-4.556-15.87-9.407-23.974-13.852c-14.413,8.16-28.741,16.459-43.252,24.437c-14.273-8.748-28.994-16.782-43.281-25.502
			c-0.841-2.58-0.392-5.383-0.519-8.062c0.211-14.384-0.042-28.77,0.435-43.14c14.749-8.215,29.176-17.063,44.066-24.998
			c14.623,7.823,28.644,16.783,43.112,24.914c12.394-7.318,25.04-14.203,37.406-21.535
			C158.414,116.213,158.288,105.473,158.344,94.733z M35.555,150.184c0.014,16.067,0.014,32.147-0.098,48.215
			c13.894,8.09,27.844,16.081,41.71,24.199c13.992-8.146,28.152-15.998,42.187-24.073c-0.028-16.067,0.07-32.148,0.07-48.215
			c-14.034-7.921-27.844-16.221-41.794-24.283C63.637,134.145,49.561,142.107,35.555,150.184z M292.517,201.624
			c-13.992,8.118-28.153,15.927-42.103,24.087c-0.084,16.081-0.421,32.162-0.126,48.243c14.006,7.908,27.816,16.151,41.71,24.241
			c13.95-8.047,28.012-15.913,41.99-23.918c-0.042-16.108,0.126-32.218,0.014-48.327C320.15,217.9,306.298,209.811,292.517,201.624z
			"/>
	</g>
	<path fill="#906DC9" d="M44.893,152.328c11.16-6.071,21.941-12.842,33.27-18.618c-0.112,3.154-3.239,4.094-5.398,5.482
		c-9.688,5.202-18.955,11.174-28.756,16.123C41.738,154.712,43.771,152.651,44.893,152.328z"/>
	<path fill="#906DC9" d="M110.816,154.965c0.351-0.211,1.052-0.646,1.402-0.87c1.135,10.641,0.098,21.422,0.448,32.12
		c-0.365,2.959,1.22,7.15-2.215,8.679C110.226,181.603,110.128,168.241,110.816,154.965z"/>
	<path fill="#906DC9" d="M196.717,154.53c1.641,0.701,2.342,1.907,2.117,3.575c-0.197,11.903-0.014,23.834-0.435,35.723
		c-0.435,0.463-1.29,1.36-1.724,1.822C196.282,181.954,196.45,168.228,196.717,154.53z"/>
	<path fill="#906DC9" d="M43.827,195.637c-1.949-0.841-1.149-3.687,0.995-2.173c9.857,5.58,19.572,11.426,29.401,17.048
		c1.879,0.856,3.224,2.426,4.023,4.318c-4.655-1.359-8.664-4.164-12.814-6.575C58.268,203.979,50.949,199.955,43.827,195.637z"/>
	<path fill="#906DC9" d="M291.353,209.46c8.342,3.126,15.535,8.65,23.386,12.814c4.332,2.874,9.745,4.529,12.913,8.875
		c-3.183-0.07-5.776-1.949-8.426-3.463c-7.936-4.71-15.913-9.337-23.905-13.921C293.484,212.868,292.082,211.381,291.353,209.46z"/>
	<g>
		<path fill="#906DC9" d="M158.063,214.984c6.352-2.748,13.838,2.328,14.076,9.127c1.57,7.15-4.22,15.436-12.001,14.048
			C148.88,236.912,147.899,218.616,158.063,214.984z M158.974,217.242c-7.15,3.645-6.182,18.17,2.734,18.604
			C172.841,235.286,170.724,213.274,158.974,217.242z"/>
	</g>
	<path fill="#906DC9" d="M256.934,230.084l2.397-0.042c-0.21,13.15-0.168,26.301-0.154,39.453l-2.285-0.028
		C256.864,256.344,256.92,243.208,256.934,230.084z"/>
	<path fill="#906DC9" d="M325.506,268.583c0.28,0.505,0.855,1.5,1.136,2.005c-11.581,6.898-23.274,13.698-35.233,19.951
		c0.294-1.865,1.234-3.196,2.832-3.996C304.672,280.571,315.271,274.893,325.506,268.583z"/>
</g>
<g>
	<path fill="#BA70B3" d="M652.347,79.083c6.28-2.71,14.04-2.42,19.76,1.49c6.52,4.54,10.4,12.81,9.07,20.73
		c-1.16,10.32-11.38,18.93-21.79,17.83c-6.66-0.12-11.96-4.88-16.08-9.64c-0.09-0.26-0.27-0.77-0.36-1.02
		c-1.9-4.44-3.13-9.32-2.1-14.15C642.127,87.873,646.407,81.992,652.347,79.083z"/>
	<path fill="#BA70B3" d="M731.677,256.112c5.2-9.89,19.33-12.73,28.4-6.59c7.11,4.53,10.96,13.77,8.73,21.97
		c-2.07,9.08-10.95,16.27-20.36,15.68c-10.23,0.15-19.22-8.83-19.86-18.9c-0.55-3.84,0.87-7.5,1.9-11.12l0.29-0.24
		C730.997,256.712,731.458,256.313,731.677,256.112z"/>
</g>
<g>
	<path fill="#00BE8F" d="M642.947,108.472c0.09,0.25,0.27,0.76,0.36,1.02c-1.25,1.01-2.49,2.04-3.74,3.06
		c-0.15,4.3-0.09,8.61-0.11,12.92c-2.05-1.71-3.81-3.71-5.71-5.57c-1.28-1.92-3.01,0.13-4.14,0.96c0.62-0.74,1.85-2.23,2.47-2.97
		c-1.91-1.86-3.78-3.74-5.58-5.7c4.26,0.02,8.52-0.03,12.78-0.03C640.577,111.012,641.827,109.792,642.947,108.472z"/>
	<path fill="#00BE8F" d="M679.237,107.933c1.75,0.89,3.41,1.97,5.12,2.94c4.1-0.82,8.3-0.89,12.4-1.66
		c-1.58,2.48-3.36,4.83-5.32,7.02c19.56,13.88,39.09,27.82,58.69,41.66c-0.1,0.27-0.29,0.81-0.39,1.08c-0.97-1.02-2-1.98-3.16-2.76
		c-18.62-12.98-36.88-26.5-55.65-39.26c-1.84,2.45-3.65,4.92-5.74,7.16c-0.79-4.24-0.76-8.59-1.82-12.77
		C681.857,110.382,680.387,109.322,679.237,107.933z"/>
	<path fill="#74C1AB" d="M735.417,170.542c4.77,0.58,9.37,3.99,14.22,2.71l0.1,0.29c-4.04,3.14-2.63,9.29-5.69,13.11
		c-1.29-2.53-2.66-5.01-3.94-7.54c-12,6.54-23.98,13.13-35.83,19.93c1.49,2.51,2.99,5.02,4.15,7.72c-4.11-0.87-8.08-2.22-12.11-3.35
		c-1.32,0.67-2.62,1.35-3.93,2.02c0.54,3.26,1.43,6.54,1,9.89c-0.23,3.42-1.82,6.52-3.12,9.64c8.76,6.41,17.35,13.05,26.11,19.46
		c1,0.63,1.7,1.59,2.29,2.6c-9.64-7.17-19.23-14.4-28.84-21.6c-3.92,4.43-9.06,8.71-15.28,8.77c-11.58,1.31-22.37-9.55-22.11-20.95
		c-0.11-7.46,4.26-14.7,10.59-18.53c5.84-3.21,13.21-3.28,19.19-0.39c4.45,2.29,7.46,6.48,9.85,10.74
		c6.26-2.19,4.45-9.89,7.84-14.29c1.27,2.52,2.63,5,3.95,7.5c11.93-6.66,24.03-13.05,35.77-20.03
		C738.087,175.752,736.627,173.202,735.417,170.542z"/>
	<path fill="#00BE8F" d="M654.787,229.532c-0.16-1.15,2.02-1.56,1.38-0.27c-5.71,5.75-10.45,12.47-16.53,17.81
		C644.327,240.933,649.958,235.563,654.787,229.532z"/>
	<path fill="#00BE8F" d="M725.107,240.382c1.94,3.86,1.2,8.44,2.53,12.52c1.37,1.04,2.7,2.11,4.04,3.21c-0.22,0.2-0.68,0.6-0.9,0.8
		c-1.15-1.14-2.14-2.45-3.45-3.4c-4.38,0.36-8.73,1.11-13.07,1.78C717.597,250.123,721.597,245.433,725.107,240.382z"/>
	<path fill="#74C1AB" d="M632.467,254.822c-0.81-4.18-1.76-8.4-1.81-12.66c2.83,1.9,5.37,4.25,8.46,5.74
		c1.86,2.07,4.31,3.44,6.5,5.12c-4.22,1.17-8.63,1.34-12.87,2.39c-0.73,0.81-1.46,1.63-2.19,2.44c3.84,2.96,7.43,6.58,8.84,11.35
		c2.8,7.58,0.16,16.63-5.9,21.86c-5.99,5.72-15.66,6.83-22.92,2.96c-6.49-3.45-11-10.43-11.14-17.83
		c-0.38-9.6,6.96-18.95,16.48-20.57c4.81-1.1,9.77,0.1,14.23,1.95C630.907,256.643,631.688,255.732,632.467,254.822z"/>
</g>
<g>
	<path fill="#8197F2" d="M549.637,188.952c26.71-22.8,53.24-45.81,79.9-68.67c-0.73,2.62-3.41,3.85-5.22,5.64
		c-24.77,21.43-49.78,42.59-74.39,64.2c1.3,6.34-0.01,13.27-4.21,18.3c-4.06,4.61-9.93,8.08-16.24,7.77
		c-6.1,0.34-11.74-2.95-15.81-7.25c-5.23-5.86-6.7-14.86-3.41-22.02c2.47-5.54,7.23-10.26,13.2-11.81
		c6.72-1.87,14.55-0.59,19.74,4.27C546.197,181.913,548.017,185.452,549.637,188.952z"/>
	<path fill="#8197F2" d="M760.637,147.103c5.57-2.42,12.14-2.42,17.7,0.02c7.8,3.71,12.99,12.53,11.97,21.19
		c-0.85,10.32-10.48,19.19-20.88,18.88c-8.57,0.25-16.56-5.85-19.69-13.65l-0.1-0.29c-1.51-4.61-1.47-9.69,0.1-14.28
		c0.1-0.27,0.29-0.81,0.39-1.08C752.427,153.353,755.917,149.222,760.637,147.103z"/>
</g>
</svg>
