<?xml version="1.0" encoding="utf-8"?>
<!-- Generator: Adobe Illustrator 16.0.0, SVG Export Plug-In . SVG Version: 6.00 Build 0)  -->
<!DOCTYPE svg PUBLIC "-//W3C//DTD SVG 1.1//EN" "http://www.w3.org/Graphics/SVG/1.1/DTD/svg11.dtd">
<svg version="1.1" id="Layer_1" xmlns="http://www.w3.org/2000/svg" xmlns:xlink="http://www.w3.org/1999/xlink" x="0px" y="0px"
	 width="850.32px" height="347.76px" viewBox="0 0 850.32 347.76" enable-background="new 0 0 850.32 347.76" xml:space="preserve">
<g>
	<g>
		<path fill="#FEFEFE" d="M516.87,106.2c1.07,3.21,1.85,6.55,1.93,9.96c-1.49-0.99-3.67-2.56-1.64-4.34
			c-1.49,1.65-3.51,1.14-5.43,0.82c2.45,3.18,5.25,6.09,7.65,9.32c2.24,2.22,3.27-2.05,4.53-3.35l1.64,0.68
			c-1.99-2.22,0.6-6.5,3.4-6.2c-0.01-0.08-0.05-0.22-0.07-0.29c-0.71-0.43-2.14-1.28-2.85-1.71c-2.14,2.28-5.05,4.44-5.52,7.73
			c-0.31-0.49-0.62-0.99-0.93-1.47c0.76-0.57,1.51-1.14,2.26-1.72c-0.12-0.99-0.36-2.98-0.48-3.98c-0.66-1.8-1.31-3.61-1.96-5.42
			C518.77,106.22,517.5,106.21,516.87,106.2z M522.43,110.03 M461.17,114.46c0.01,1.66-0.18,3.38,0.34,4.99
			c0.38,0.72,0.52,3.03,1.84,2.21C464.86,119.27,463.25,116.02,461.17,114.46z M509.24,116.5c0.93,4.01,6.4,4.01,7.72,7.82
			c0.5-0.16,1.48-0.48,1.98-0.64c-0.47-1.53-1.67-2.75-2.32-4.21C514.38,117.96,512.16,116.08,509.24,116.5z M459.26,118.74
			c-0.07,2.51,0.09,7.27,2.76,7.95c0.14-0.76,0.4-2.28,0.53-3.05c-0.46-0.25-1.37-0.75-1.83-1l1.57-1
			C461.3,120.65,460.29,119.69,459.26,118.74z M526.74,120.34c0.86,1.77-1.26,2.06-2.28,2.61c-0.25,0.62-0.76,1.86-1.02,2.48
			c-0.45,0.02-1.34,0.07-1.79,0.09c0.46-0.91,0.04-2.31-1.22-1.51c-1.81,0.8-0.53,2.72-0.26,4.01c-1.73-1.34-3.23-2.94-4.49-4.73
			c-2.87-0.65-6.4-2.7-8.87,0c4.36,1.22,8.35,3.4,12.38,5.4c1.52,2.01,0.3,4.97,0.58,7.34c-2.33-1.71-4.48-4.11-7.56-4.27
			c-3.69-0.21-7.39-0.32-10.99-1.26c2.42,2.5,5.5,4.19,8.94,4.79c4.14,0.85,6.93,4.26,9.44,7.38c-0.81,2.43-0.17,4.93,0.24,7.36
			c-3.07-2.88-6.38-7.76-11.2-6.45c-2.99,2.02-6.09,3.88-9.88,3.47c1.66,0.92,3.56,2.51,5.56,1.67c2.51-0.7,5.57-3.15,7.9-0.75
			c2.28,2.84,3.76,6.24,6.15,9.01c2.22,2.56,1.04,6.09-0.13,8.83c-1.1-1.95-1.96-4.01-2.66-6.14c-0.35,1.07-0.69,2.14-1.02,3.21
			c-0.94-1.45-1.44-3.37-3.19-4.1c0.98,2,1.63,4.15,1.67,6.39c0.2,0.26,0.61,0.78,0.82,1.04l-1.68-0.22
			c0.27,0.66,0.81,1.97,1.08,2.63c-2.94-1.36-5.98-2.76-9.28-2.9c-3.46,0.61-4.42,4.51-6.81,6.55c-1.62,0.83-3.39,1.34-5.07,2.02
			c2.15,0.64,4.63,1.59,6.69,0.12c2.21-0.91,3.86-3.3,6.32-3.4c5.23,1.7,9.11,5.82,13.96,8.23c0.49,1.98,0.07,3.82-1.65,5.03
			c-0.58-1.81-0.75-3.69-0.79-5.57c-0.28,0.41-0.84,1.23-1.12,1.65c-3.99,0.08-7.84,1.18-11.68,2.12c0.06,3.12-1.95,5.37-3.96,7.5
			c3.67-0.34,7.59-2.37,7.88-6.48c3.51,1.39,3.1,5.56,4.28,8.52c0.91,3.05,4.2,4.21,6.78,5.51c0.58,5.04,0.06,10.1,0.25,15.16
			c-0.76,0.75-1.53,1.52-2.29,2.28c-0.3-0.17-0.92-0.5-1.23-0.66l0.6,1.06c-1.28,0.8-2.55,1.64-3.62,2.7
			c2.6-0.54,4.71-2.21,6.68-3.9c-0.83,1.46-0.91,2.92-0.25,4.4c-0.89,0.05-2.67,0.17-3.56,0.23c2.44,1.54,4.45,3.92,6.79,5.32
			c-0.17-0.96-0.5-2.88-0.66-3.84c1.2,0.83,2.41,1.66,3.63,2.49c-1.6,1.51-1.42,3.5-0.66,5.36c0.29-1.58,0.61-3.15,0.98-4.72
			c2.33,4.19,1.46,9.12,1.62,13.69l1.12,0.07c0-1.69,0.01-3.39,0.03-5.08c0.61,1.38,3.85,3.46,1.86,4.81l-0.61,0.42
			c0.22,0.38,0.64,1.14,0.85,1.51c0.18,0.42,0.56,1.24,0.74,1.65c0.14,0.05,0.42,0.15,0.56,0.2c0.28-2.02,0.66-4.02,1.29-5.96
			c-1.36-1.88-2.92-3.62-4.69-5.13c0-0.81,0-2.43,0-3.24c0.97,1.5,1.95,3.01,3.11,4.38c-0.27-2.94-2.41-4.99-4.09-7.2
			c-0.98-0.97-1.85-2.05-2.51-3.26c1.53,0.18,2.53,1.33,3.52,2.34l0.47-1.91c0.39,0.69,1.18,2.07,1.58,2.76
			c0.33-0.37,1.01-1.13,1.35-1.5c0.55,0.64,1.21,1.16,1.97,1.56c-0.27,2.82-0.5,5.92,1.31,8.32c0.03-1.78-0.19-3.53-0.67-5.26
			c1.95,1.12,2.81,3.17,3.38,5.23c0.22-0.41,0.67-1.23,0.9-1.64l1.53-0.57c-0.12,0.52-0.37,1.55-0.49,2.06
			c0.36-0.76,0.72-1.52,1.09-2.29l-2.22-0.48c0.58-0.5,1.17-0.99,1.76-1.49c-1.48-1.15-3.02-2.21-4.67-3.09
			c-0.2-0.53-0.58-1.6-0.77-2.14c-3.22-2.39-7.21-2.48-11.02-2.99c-0.09-1.05-0.28-3.16-0.38-4.22c1.3,1.25,2.61,2.53,4.08,3.6
			c-1.21-2.69-3.79-4.35-5.63-6.56c0.25-1.78-0.54-3.98,0.84-5.44c3.78-1.86,7.8-3.72,12.11-3.59c1.54,3.39,4.98,4.79,8.59,4.47
			c-3.08-2.33-4.58-6.03-7.29-8.63c-5.02-1.27-9.78,2.14-14.31,3.91c0.09-5.22-0.58-10.74,0.63-15.76c4.4-2.54,8.28-7.1,13.68-6.95
			c-0.54,0.9-1.06,1.82-1.56,2.75c1.27-0.19,1.77-1.49,2.57-2.33c2.2,3.38,6.66,4.7,10.13,2.43c-1.58-0.47-3.17-0.86-4.68-1.5
			c-2.51-1.79-3.1-5.67-6.3-6.52c-3.01-0.44-5.91,0.74-8.59,1.96c0.41-1.23,0.83-2.46,1.26-3.69l-1.29,0.14
			c0.35-3.27,2.72-6.4,1.45-9.72c-0.25,2.32-1.11,4.44-2.5,6.3c-0.09-0.66-0.26-1.98-0.35-2.64l-0.82,0.06
			c-0.69,2.39-1.95,4.56-3.34,6.62c-1.06-6.47,3.17-12.24,7.21-16.81c2.86-3.53,6.64,0.28,9.86,1.06c1.96-0.24,3.54-1.47,5.14-2.53
			c-1.72-0.01-3.45,0.08-5.15-0.14c-2.68-1.6-5.4-5.25-8.87-3.69c-4.09,1.32-6.15,5.27-8.96,8.16c0.43-1.95,1.81-3.89,0.98-5.92
			c-0.89-2.57-1.02-5.39,0.11-7.91c2.86-7.17,10.27-11.01,13.77-17.78c-2.47,1.52-5.16,2.59-7.8,3.73
			c-3.14,1.37-4.64,4.67-6.78,7.14c0.43-3.56-2.44-8.8,1.49-11c2.88-2.03,5.22-5.22,9.12-5.24
			C532.43,119.65,528.78,120.92,526.74,120.34z M407.28,133.74c0.04,3.33,0.55,6.69,2.26,9.61c1.79,2.9,1.51,6.37,1.44,9.62
			c-1.82-1.21-3.42-3.21-5.78-3.22c-2.13,0.34-4.14,1.17-6.17,1.9c-1.62-0.53-3.24-1.06-4.87-1.54c0.99,1.02,1.95,2.09,3.11,2.94
			c2.81,1.65,6.36-1.03,9.06,0.78c2.39,2.79,2.27,6.77,3.88,9.96c0.67,1.7,1.96,3.25,1.92,5.15c-0.48,1.68-1.37,3.2-2.1,4.77
			c-2.47-2.94-5.59-6.24-9.75-6.11c-2.73,0.6-4.63,3.03-7.25,3.93c-1.72,0.03-3.43-0.2-5.14-0.32c1.53,1.28,3.05,3.09,5.28,2.84
			c2.7,0.18,5.27-2,7.89-1.26c4.73,3.81,7.7,9.27,11.36,14.02c-3.65-1.36-7.49-2.07-11.38-2.08c-0.67,1.27-1.34,2.53-2.03,3.79
			c-1.37,0.6-2.73,1.24-4.04,1.97c3.73,1.37,7.86-0.1,9.8-3.56c2.84,2.92-0.32,7.1,1.02,10.51c0.76,3.18,3.97,4.58,5.97,6.84
			c0.49,2.22-1.1,4.4-0.54,6.62c0.53,2.57,0.68,5.19,0.48,7.81c-4.9,1.54-9.81,2.82-14.86,3.72c1.93,0.32,4.17-0.44,5.87,0.82
			c-1.62,0.31-3.24,0.59-4.87,0.85c1.33,0.33,2.65,0.65,3.98,0.98c-2.03,2.21-5.87,1.79-7,5c2.22-1.44,4.57-2.87,7.35-2.67
			l-1.19-0.03c1.55-2.36,3.42-4.52,5.86-6.01c-0.8,1.58-1.6,3.15-2.42,4.71c0.89-0.34,2.67-1.04,3.56-1.38
			c-0.24-1.49-0.25-2.98-0.02-4.46c0.82,0.85,1.64,1.69,2.47,2.53l0.54-2.11c2.45,4.74-0.1,9.93-3.6,13.36
			c-0.35,0.43-1.04,1.3-1.39,1.73c-2.09-0.2-0.69-3,0.03-4.01c1.42-1.48,0.41-5.14,3.15-4.82c-0.4,0.86-1.21,2.57-1.61,3.43
			c0.32,0.11,0.96,0.34,1.29,0.45c0.47-1.68,0.98-3.34,1.59-4.98c0.21-0.64,1.38-2.52,0.11-2.63c-1.87,1.84-3.97,4.12-6.98,2.94
			c3.12,1.47,2.98,4.45,0.69,6.4c-0.11,1.86,0.35,3.65,1.03,5.36c1.47-1.34,2.77-2.83,4.09-4.31c0.3,2.17,0.77,4.31,1.46,6.38
			c3.22-3.66-1.98-9.42,2.67-12.13c-1.27,4.29,2.98,6.92,3.21,10.82l0.55,0.13c1.16-4.14-4.48-6.79-2.28-11.14
			c2.81,1.51,0.99,5.9,4.47,7.14c-0.82-1.88-2.18-3.69-1.39-5.87c3.02,2.56,4.35,6.19,4.65,10.04c0.3-2.27,0.92-4.93-0.74-6.84
			c-1.54-1.84-2.12-4.19-2.6-6.48c1.56,1.64,2.58,3.68,3.89,5.51c-0.28-4.41-4.23-6.94-6.3-10.49c3.15-0.3,4.66,2.21,6.06,4.53
			c-0.18-0.9-0.54-2.71-0.72-3.61c4.02,2.09,4.71,7.5,5.32,11.64c0.45-1.48,0.54-3.03,0.63-4.56c0.61,0.02,1.83,0.07,2.44,0.09
			c-2.72-1.41-5.1-3.5-5.01-6.85c0.9-0.12,2.7-0.36,3.61-0.48c-5.1,0.04-10.03-1.23-14.81-2.87c0.44-3.21-1.36-7.42,1.53-9.79
			c2.23-2.11,4.52-4.3,7.33-5.62c2.89-0.81,5.05,2.04,7.23,3.5c0.2-0.49,0.6-1.46,0.8-1.94c1.3-0.2,2.56-0.61,3.81-1.02
			c-4.15-0.19-6.59-3.81-10.11-5.34c-4.48-0.08-7.55,3.89-10.7,6.54c0.59-5.5-1.15-11.75,2.42-16.53c2.06-2.83,3.77-6.18,6.85-8.04
			c2.56,0.29,5,1.39,7.61,1.23c2.09,0.11,3.31-1.85,4.73-3.05c-1.62,0.24-3.24,0.53-4.87,0.63c-2.86-0.79-4.97-3.39-7.96-3.73
			c-3.93,0.44-6.38,3.93-8.82,6.65c-0.1-3.73-0.5-7.67,1.28-11.11c1.58-3.18,3.13-6.97,6.57-8.52c2.42-0.45,4.75,1.03,7.08,1.56
			c2.06-0.98,4-2.19,5.73-3.68c-1.79,0.34-3.57,0.9-5.4,0.98c-2.87-0.76-5.25-3.26-8.38-3.02c-2.46,0.79-4.14,2.9-5.97,4.6
			c-1.9-4.21,0.17-8.81,2.35-12.47c2.59-4.15,5.47-8.2,6.84-12.96c-3.04,2.74-6.77,4.71-9.3,8
			C413.01,141.19,409.44,137.95,407.28,133.74z M364.52,181.45c1.68,2.83,1.52,6.19,1.43,9.36c-1.62-2.81-3.44-5.89-6.63-7.13
			c-2.55-0.14-4.89,1.08-7.3,1.69c-1.7-0.25-3.31-0.86-4.97-1.29c1.53,1.78,3.55,3.8,6.14,3.32c2.17,0.06,4.91-1.19,6.54,0.82
			c1.61,2.25,1.77,5.19,2.54,7.79c-2.3-2.27-4.88-4.56-8.19-5.11c-2.55,0.19-4.38,2.23-6.53,3.38c-2.17,1.52-4.83,0.43-7.18,0.03
			c1.75,1.3,3.37,3.44,5.79,3.23c3.45,0.05,7.07-2.9,10.15-0.13c-1.48,0.3-2.96,0.59-4.44,0.89c-0.51,3-2.69,4.95-5.05,6.61
			c3.83,0.59,7.87-1.37,9-5.23c3.27,2.32,1.71,6.77,2.37,10.12c1.02,2.59,3.94,3.46,5.93,5.13c1.9,2.36-1.87,4.71-0.07,6.95
			c1.66,2.14,0.92,4.83-0.03,7.1l-1.32-0.85c2.14,2.72-3.22,4.21-2.94,7.26c1.28-1.24,2.56-2.5,4.12-3.38
			c-0.34,0.98-0.69,1.95-1.07,2.92c0.45,1.33,0.95,2.65,1.56,3.92l0.03-1.58c0.31-0.04,0.94-0.12,1.25-0.16
			c-0.1-3.34-2.87-7.33,0.68-9.74c-0.56,4.08,2.62,6.93,3.71,10.58c0.8-3.82-3.88-6.36-2.07-10.13c0.97,1.1,1.48,2.47,1.68,3.92
			c0.85,0.8,1.72,1.58,2.62,2.33c-0.5-1.71-3.11-3.75-1-5.38c0.33,0.5,1,1.49,1.34,1.98l0.58-0.39l0.19-0.13
			c-0.54-1.5-1.01-3.03-1.41-4.57c1.45,1.02,2.14,2.6,2.73,4.2c0.3-0.07,0.92-0.23,1.23-0.3c-1.64-3.34-4.24-6.04-6.41-9.02
			c0.83,0.2,2.49,0.6,3.31,0.8c0.95,1.39,1.82,2.91,3.31,3.8c-0.48-0.75-1.44-2.25-1.91-2.99c3.46-0.83,3.2,3.96,4.97,5.83
			c0.15,1.5-0.09,3.16,0.9,4.44c0.1-1.46,0.15-2.92,0.17-4.38c0.56,0.12,1.66,0.37,2.22,0.5c-2.11-1.67-4.46-3.29-4.72-6.22
			c1.23-0.33,2.45-0.69,3.67-1.08c-4.48,0.16-9-0.5-13.08-2.42c-1.21-1.19-0.71-3.2-1.12-4.74c1.93-3.36,3.18-7.47,6.71-9.56
			c1.4,0.5,2.79,1.14,4.28,1.37c1.98-0.37,3.52-1.75,5.09-2.89c-2.52-0.19-4.97-0.79-7.29-1.77c1-0.57,1.93-1.42,3.12-1.54
			c2.68,0.77,5.07,2.77,7.99,2.61c1.65-0.01,2.89-1.27,4.26-2.03c-1.77-0.18-3.56-0.17-5.28-0.63c-2.17-1.42-3.69-3.66-6.01-4.87
			c-1.94-0.46-3.84,0.55-5.73,0.93c1-1.24,2.01-2.47,3.01-3.71c3.19,0.09,6.53,0.89,9.61-0.3c1.27-0.98,2.28-2.24,3.37-3.41
			c-2,0.53-3.97,1.51-6.08,1.31c-2.75-0.62-5.17-2.69-8.08-2.48c-3.73,1.61-6.25,5.06-7.89,8.67c1.88-6.39,7.84-10.82,8.81-17.54
			c-2.02,2.18-4.44,3.92-6.92,5.54c-2.04-4.39-6.03-7.5-7.85-12.03C362.12,175.07,362.8,178.48,364.52,181.45z M315.48,184.78
			c-0.62,7.6,4.37,14.11,3.98,21.65c-0.13,0.01-0.38,0.02-0.51,0.03c-0.26-2.59-0.52-5.17-0.68-7.76c-3.01-3.41-8-2.43-12.07-2.59
			c-1.28,3.06-3.31,5.5-6.57,6.58c4.28,1.74,9.03-0.76,10.6-4.99c2.52,3.27,1.61,7.37,1.54,11.15c1.13,4.07,5.98,5.21,7.66,8.95
			c-2.36,3.02-5.45,5.33-8.11,8.06c1.88-0.32,3.29-1.71,5.05-2.33l-0.02,1.11c1.31,0.26,2.16-1.61,3.56-1.73
			c-0.07,0.55-0.22,1.64-0.29,2.19c3.27,2.57,2.31,6.84,2.66,10.46c3.57-4.84-1.72-9.64-0.95-14.71c0.73,1.2,1.42,2.43,2.09,3.67
			c0.52-0.08,1.55-0.24,2.07-0.32c0.95,0.91,2.04,1.56,3.27,1.97c-2.18-3.52-7.5-5.5-7.05-10.22c1.3-4.31,3.47-8.53,6.7-11.73
			c1.85-0.4,3.73,0.35,5.61,0.3c2.18-0.6,3.87-2.16,5.6-3.52c-5.17,2.02-11.06-4.16-15.26,0.71
			C324.5,194.74,318.09,190.68,315.48,184.78z M291.29,198.91c-1.56,3.32-0.73,7.05-0.21,10.51c0.6,0.08,1.17-0.01,1.73-0.29
			c-1.38-6.44,2.82-12.1,3.07-18.4C294.33,193.44,292.63,196.08,291.29,198.91z M275.76,212.85c-0.48-0.77-0.96-1.53-1.44-2.28
			c-1.88,0.08-3.94-0.28-5.61,0.79c-0.94,1.74-1.03,3.98,0.38,5.5c2.07,2.35,3.43,5.2,5.34,7.67c-1.05,1.95-1.78,4.07-1.82,6.3
			c1.06-2.15,2.21-4.27,2.94-6.56c-1.14-1.64-2.38-3.23-2.95-5.18c2.25-0.01,4.47-1.28,4.69-3.7c0.38-4.23,1.25-8.54,0.48-12.78
			C276.58,205.9,276.38,209.42,275.76,212.85z M291.92,209.8c-0.17,1.15-0.25,2.32-0.33,3.49c-1.59-0.68-3.38-0.9-4.9,0.11
			c-1.84,2.49,1.08,4.53,2.2,6.53c-0.18,2.19-0.59,4.36-0.73,6.56l1.61,0.19c-0.07-1.04-0.23-3.12-0.3-4.15
			c0.87,1.63,0.94,4.2,3.33,4.19l-0.41,0.81c0.29-0.22,0.87-0.66,1.16-0.89c-2.73-1.23-1.15-5.22-2.07-7.65
			c2.44-3.01,1.79-7.24,2.01-10.83C293.1,208.57,292.31,209.39,291.92,209.8z M255.65,212.88c-0.89,4.31,4.77,6,4.14,10.29
			c0.72-1.36,0.91-2.88,0.92-4.4c2.02-1.82,3.92-4.89,1.98-7.47C260.54,210.01,256.34,209.82,255.65,212.88z M356.91,221.41
			c-0.77,0.78-1.54,1.56-2.31,2.33c0.08,0.47,0.24,1.4,0.32,1.87c-2.08,0.94-4.45,1.47-6.01,3.27c2.31-0.77,4.53-1.9,7.02-1.96
			l-0.84-0.82c1.45-1.76,3.08-3.36,4.82-4.83c-0.61,1.34-0.87,2.88-0.12,4.22c0.99-0.63,2.97-1.9,3.95-2.54
			c-0.52-0.54-1.05-1.08-1.57-1.62l-0.67,1.82l-0.58-1.18c0.71-0.9,1.39-1.82,2.05-2.76C360.92,219.88,358.92,220.65,356.91,221.41z
			 M448.76,222.66c1.19,0.35,2.41,0.6,3.65,0.77c-2.9,1.09-5.88,1.98-8.72,3.25c0.02,0.11,0.07,0.34,0.09,0.46
			c1.23-0.03,2.4-0.09,3.66-0.07c-0.37,0.59-1.12,1.76-1.5,2.34c0.75-0.49,2.25-1.46,3-1.95c0.65,0.49,1.3,0.99,1.94,1.5l-2.36-0.15
			c1.06,1.94-0.65,3.45-1.37,5.05c0.81-0.69,2.44-2.08,3.25-2.77c-0.27,1.05-0.82,3.14-1.09,4.18c1.63-1.97,2.46-4.44,2.99-6.91
			c0.36,0.54,0.72,1.09,1.07,1.65l0.41,0.68c0.81-0.47,2.43-1.39,3.23-1.86c-1.12-0.61-2.26-1.18-3.39-1.77
			c2.78-0.26,4.59-2.68,6.73-4.19c-0.32-0.46-0.64-0.92-0.97-1.37c-0.63,0.79-1.91,2.38-2.54,3.17c-0.01-2.07,0.72-3.96,2.2-5.42
			C455.73,220.73,452.43,222.32,448.76,222.66z M505.31,222.2l-0.05,0.41c0.82,0.09,2.46,0.27,3.28,0.36
			c-2.42,1.68-5.53,1.97-7.81,3.86c2.16-0.52,4.27-1.25,6.37-1.95c-0.15,0.73-0.45,2.2-0.6,2.94c2.68-1.6,3.74-4.9,6.62-6.26
			l-1.45,3.03c1.44-0.68,2.28-1.85,2.53-3.51l1.67-0.2c-0.64-0.45-1.28-0.9-1.92-1.34C511.55,221.65,508.47,222.61,505.31,222.2z
			 M461.11,223.8C460.49,224.57,460.49,224.57,461.11,223.8C464.41,223.47,459.82,220.66,461.11,223.8z M474.25,222.31
			c0.66,0.69,1.33,1.37,2.03,2.03l1.18-1.33c-0.34,0.47-1,1.41-1.34,1.88c0.06,0.5,0.17,1.5,0.23,2c0.37-0.2,1.12-0.61,1.5-0.81
			l-0.19,1.4l2,0.29c-0.05-0.47-0.15-1.42-0.2-1.89c1.06,0.96,2.33,1.6,3.7,1.96c-1.25-1.46-2.81-2.59-4.5-3.47
			C477.89,222.81,476.28,220.11,474.25,222.31z M515.36,227.07c1.51-0.41,2.97-2,3.05-3.58
			C517.08,223.74,514.81,225.52,515.36,227.07z M324.16,224.82c0.04,1.52,1.84,3.69,3.42,3.78
			C327.9,226.94,325.95,224.38,324.16,224.82z M358.57,223.96c-0.87,1-1.75,1.98-2.64,2.96c-1.24,1.35-2.46,2.75-3.34,4.38
			c2.16-1.18,3.64-3.2,5.47-4.77c-0.26,0.96-0.79,2.89-1.06,3.85l-0.55-0.53c-0.42,1.86-0.89,3.71-1.35,5.57
			c0.54-0.69,1.62-2.07,2.16-2.76c0.41,1.09,1.24,3.26,1.65,4.34c0.29-1.51-0.15-2.98-0.54-4.43c1.07-1.19,1.73-2.63,1.98-4.22
			l0.64-0.09l0.21,2.12c0.37-0.56,1.12-1.69,1.5-2.25c0.64-1.05,0.79-2.16,0.44-3.33c-1.91-0.46-3.29,1.38-4.81,2.2
			C358.39,226.24,358.51,224.72,358.57,223.96z M396.45,225.16 M474.29,224.78l-0.54,0.49l0.41,0.81l0.93,0.03l0.44-0.8
			C475.22,225.18,474.6,224.91,474.29,224.78z M508.6,227.7l1.11-0.1c0.77-0.23,2.3-0.68,3.06-0.91c-1.62,1.29-2.63,2.88-3.04,4.77
			c0.78-0.68,2.34-2.03,3.12-2.71c-0.81,1.5-1.16,4.45-3.69,3.89l1.3,2.23c1.69-2.22,2.86-4.74,4.21-7.17
			c-0.7-0.45-1.41-0.88-2.12-1.31l2.11-1.26l2.65-3.27C514.39,223.8,511.49,225.73,508.6,227.7z M517.98,226.02
			c0.87,0.24,2.59,0.73,3.46,0.97l-0.2,0.59c-2.34-1.24-3.77,1.41-4.75,3.07c-0.02-1.01-0.06-3.02-0.08-4.02
			c-1.34,1.8-1.46,4.14-2.06,6.25c0.94-0.74,1.87-1.48,2.83-2.2c0.02,2.17-0.93,4.05-2.56,5.49c1.65,1.22,3.11,0.04,3.92-1.52
			c-0.07-0.99-0.22-2.96-0.3-3.95c1.41,1.73,2.44,3.73,2.34,6.04c0.31-0.63,0.93-1.91,1.25-2.55c0.53,1.13,1.06,2.27,1.6,3.41
			l1.33-0.63c0,0.93,0,2.78,0,3.71c0.19-0.02,0.56-0.07,0.75-0.1c0.03-1.71,0.68-3.53-0.12-5.15c-1.08-1.95-2.97-3.42-3.55-5.65
			c-0.42,0.6-1.27,1.81-1.7,2.42c0.09-0.87,0.27-2.6,0.36-3.46c1.93,1.26,3.82,2.59,5.81,3.76c-1.92-2.1-3.01-4.65-3.73-7.35
			C521.01,223.62,518.93,223.89,517.98,226.02z M317.76,231.88c-0.42-2.01-0.69-4.1-1.74-5.9
			C314.37,227.73,316.59,230.34,317.76,231.88z M456.17,227.06c0.8,0.38,1.6,0.76,2.4,1.14c-0.04,0.98-0.13,2.94-0.18,3.92
			c1.99-1.89,0.93-5.17,2.49-7.41C459.7,225.3,457.35,226.47,456.17,227.06z M318.9,225.48c0.15,3.26,0.16,6.52,0.38,9.78
			C320.82,232.39,321.3,227.91,318.9,225.48z M504.23,227.95C503.49,228.53,503.49,228.53,504.23,227.95
			C507.25,229.25,504.59,224.6,504.23,227.95z M287.38,228.12 M402.17,227.41c-1.1,1.16-2.94,2.42-2.93,4.14
			c1.69-0.18,3.56-2.52,3.5-4.22L402.17,227.41z M403.06,231.1c1.32,0.06,2.18-2.02,1.93-3.16
			C403.63,227.8,402.64,229.92,403.06,231.1z M505.13,229.14c0.24,0.38,0.73,1.15,0.97,1.53c-0.68,1.04-1.36,2.08-1.99,3.15
			c0.85-0.81,1.68-1.64,2.51-2.48l0.66,0.37l-0.96,1.84l2.2-0.09c-0.27-2.06,0.47-3.98,1.19-5.86
			C508.18,228.12,506.67,228.66,505.13,229.14z M477.09,228.79l-0.34,0.76C477.41,232.19,479.49,228.25,477.09,228.79z
			 M453.26,233.41c0.03-0.85,0.08-2.55,0.11-3.4c-0.26,0.79-0.79,2.37-1.05,3.16c-0.76,2.01-1.36,4.08-1.93,6.15
			c2.05-1.2,2.2-3.66,2.59-5.75c0.37,0.79,1.11,2.38,1.48,3.17l0.74-0.05c-0.17-0.75-0.49-2.25-0.66-3
			c1.02-1.39,1.86-2.91,2.24-4.61C455.48,230.42,454.39,231.93,453.26,233.41z M373.19,230.28c0.68,2.27,1.23,4.58,1.7,6.91
			C375.97,234.82,375.72,231.6,373.19,230.28z M470.34,230.96c-1.05,1.61-0.07,3.9-0.26,5.77l1.02,0.11
			c-0.03-1.57-0.05-3.13-0.07-4.7c2.77,2.32,2.64,5.75,3.37,8.95c0.41-2.16,0.8-4.33,1.42-6.43c-0.96-1.38-1.95-2.74-2.93-4.11
			C472.25,230.66,470.97,230.86,470.34,230.96z M509.73,231.46 M402.69,232.15c-0.87,1.23-1.66,2.91-1.95,4.34
			C402.66,236.72,405.26,232.66,402.69,232.15z M566.14,233.04 M506.38,234.05 M508.77,234.13c-0.7,1.36-1.29,3-1.28,4.53
			C509.32,238.95,510.6,234.49,508.77,234.13z M511.29,234.93 M519.19,238.11c0.83,1,1.35,3.15,2.73,3.29
			c0.36-1.58-0.48-3.37-1.61-4.46C519.44,236.81,519.06,237.19,519.19,238.11z M514.31,237.84l-0.52,0.51l0.42,0.8l0.93-0.01
			l0.42-0.81C515.24,238.21,514.62,237.96,514.31,237.84z"/>
	</g>
	<path fill="#FEFEFE" d="M577.95,104.88h29.21v78.05c-1.77-0.61-3.69-0.87-5.33-1.8c-1.71-1.72-2.8-3.95-4.55-5.62
		c-2.49-1.56-5.5-0.22-8.13,0.21c0.22-2.17,0.42-4.34,0.67-6.51c-0.33-0.13-0.99-0.41-1.31-0.54c-0.26-1.43-0.54-2.87-0.82-4.29
		c-1.4,1.29-2.54,2.81-3.58,4.39c-0.52-0.32-1.56-0.96-2.08-1.28c2.39-4.7,4.85-9.93,9.84-12.36c1.79,0.81,3.56,1.71,5.42,2.36
		c2.74,1.24,5.23-1.22,7.71-2.11c-2.49,0.03-5.42,1.07-7.49-0.83c-2.12-1.28-4.17-3.61-6.88-3.09c-4.33,1.14-6.94,5.09-9.35,8.55
		c2.03-4.65-1.34-9.61,0.85-14.19c2.94-6.86,9.94-10.72,13.53-17.17c-2.49,1.16-5.04,2.2-7.54,3.33c-3.22,1.31-4.79,4.66-6.89,7.2
		c-0.23-3.04-0.68-6.07-0.58-9.12c3.44-3.3,7.1-6.6,11.81-7.91c-1.86-2.2-4.51-1.2-6.82-0.39c-1.35,1.68-2.86,3.25-4.66,4.44
		c3.22-3.39,6.4-6.87,10.29-9.52c-3.5-1.35-6.38,0.97-8.72,3.29c1.84-2.75,3.36-5.71,4.57-8.79c-3.95,0.78-5.9,4.36-6.81,7.94
		C581.79,114.31,581.04,108.91,577.95,104.88z"/>
	<path fill="#FEFEFE" d="M575.99,177.67c1.99,0.83,4.13,2.59,1.93,4.51C577.24,180.69,576.58,179.19,575.99,177.67z"/>
	<g>
		<path fill="#FEFEFE" d="M592.5,180.36c4.23-1.8,6.68,4.3,10.88,3.65c1.27-0.26,2.52-0.58,3.77-0.95l0.01,0.9v58.92h-29.09
			c-0.21-2.42-0.51-4.84-0.75-7.26c1.46,2.09,2.9,4.22,4.31,6.36c-0.18-2.55-0.37-5.13,0.07-7.66c0.79,0.25,2.37,0.74,3.16,0.98
			c-1.25-1.73-2.35-3.53-3.17-5.49c1.6,0.97,3.2,1.97,4.85,2.89c0.29,1.63,0.59,3.28,0.97,4.9c0.11-1.29,0.32-3.86,0.42-5.15
			c0.88,1.11,1.76,2.22,2.63,3.35c0.02,1.83,0.08,3.66,0.23,5.49c0.54-1.96,0.71-4,0.84-6.02c0.4,0.04,1.21,0.13,1.62,0.17
			c-2.21-2.51-4.42-5.04-6.29-7.82c-0.11,1.24-0.31,3.71-0.42,4.95c-1.74-1.62-3.24-3.48-3.97-5.78c0.7,0.3,2.1,0.91,2.79,1.22
			l-0.17-1.28l-1.83,0.31c0.79-1.21,1.6-2.42,2.43-3.62c0.16,1.38,0.33,2.76,0.49,4.14c1.4-0.04,2.8-0.08,4.2-0.1
			c-1.09-0.99-2.19-1.98-3.28-2.97c0.5-1.14,1-2.28,1.51-3.42c0.79,1.65,1.52,3.33,2.22,5.03c-0.05-1.56-0.08-3.12-0.1-4.67
			c0.5,0.8,1.48,2.41,1.97,3.21c0.68-0.31,2.03-0.95,2.71-1.27c-1.66-1.23-3.37-2.4-5.1-3.53c-3.02,0.12-5.98-0.53-8.82-1.49
			c-0.08-0.7-0.23-2.11-0.3-2.81c0.34,0.61,1.03,1.83,1.37,2.45c0.2-0.62,0.59-1.84,0.79-2.45c1.3,1.17,2.63,2.35,4.02,3.43
			c-1.43-2.58-3.84-4.36-5.66-6.62c-0.61-1.79-0.11-3.77-0.11-5.62c4.12-1.68,8.23-4.13,12.85-3.65c0.97,1.34,1.97,2.67,2.98,3.99
			c2.13,0.12,4.26,0.23,6.4,0.38c-3.97-1.78-5.42-6.06-8.37-8.86c-5.12-0.77-9.76,2.18-14.18,4.3c0.04-5.22-0.23-10.46,0.34-15.65
			C585.18,184.76,588.61,182.11,592.5,180.36z M593.14,224.64c0.12,2.53-0.25,5.34,1.68,7.31c-0.19-1.65-0.43-3.31-0.59-4.96
			c0.4-0.49,1.19-1.46,1.59-1.95C595.07,224.32,594.18,224.19,593.14,224.64z M596.02,224.93c-0.24,1.31,1.77,2.99,3.04,2.63
			C599.28,226.12,597.39,224.57,596.02,224.93z M594.8,226.57c1.05,1.75,1.99,3.56,2.88,5.41c-0.02-0.54-0.06-1.62-0.07-2.16
			c0.67-0.01,2.03-0.04,2.71-0.05c-1.75-0.91-3.63-1.73-4.71-3.49L594.8,226.57z M589.44,228.3 M581.99,236.04
			c1.88,1.56,3.13,3.48,2.55,6.02c0.6-1.82,1.23-3.66,1.29-5.6C584.55,236.33,583.27,236.19,581.99,236.04z"/>
	</g>
	<path fill="#FEFEFE" d="M522.17,216.94"/>
	<path fill="#FEFEFE" d="M367.44,220.92c3.01,1.3,4.65,4.56,3.38,7.73c-0.83-1.17-1.67-2.33-2.55-3.45
		c-1.13-0.54-1.34,1.04-1.81,1.68c-0.13-0.61-0.4-1.82-0.54-2.42c0.37-0.35,1.09-1.05,1.45-1.4
		C367.39,222.52,367.42,221.46,367.44,220.92z"/>
	<path fill="#FEFEFE" d="M413.98,220.6c1.3,0.84,2.6,1.7,3.89,2.56c0.34,2.12,1.6,4.56-0.37,6.29
		C415.72,226.77,414.72,223.7,413.98,220.6z"/>
	<path fill="#FEFEFE" d="M581.23,220.51c1.24,0.75,2.49,1.51,3.75,2.25c-0.94,1.38-1.83,2.78-2.7,4.19
		C582.19,224.77,581.82,222.61,581.23,220.51z"/>
	<path fill="#FEFEFE" d="M584.97,220.81c1.39-0.19,2.05,0.4,1.97,1.77C585.52,222.75,584.87,222.16,584.97,220.81z"/>
	<path fill="#FEFEFE" d="M451.79,225.84c1.15-1.4,2.04-3.49,4.11-3.66c-0.36,1.41-0.77,2.8-1.25,4.17c-1.4,0.66-2.77,1.38-4.11,2.16
		C450.95,227.62,451.37,226.73,451.79,225.84z"/>
	<path fill="#FEFEFE" d="M580.26,223.18"/>
	<path fill="#FEFEFE" d="M413.43,226.65c-0.88-1.23-0.69-2.01,0.57-2.34C414.88,225.55,414.69,226.33,413.43,226.65z"/>
	<path fill="#FEFEFE" d="M447.18,226.68c0.73-0.23,2.18-0.7,2.9-0.93c-0.44,1.02-1.32,1.46-2.64,1.32L447.18,226.68z"/>
	<path fill="#FEFEFE" d="M361.2,227.4"/>
	<path fill="#FEFEFE" d="M537.89,227.19"/>
	<path fill="#FEFEFE" d="M570.22,227.14c0.49-0.11,1.46-0.33,1.94-0.44c-0.5,0.86-1.01,1.72-1.54,2.56l-0.47,0.72
		c-0.46,0.28-1.39,0.83-1.85,1.11c0.25-1.23,0.59-2.44,1.02-3.62C569.54,227.39,569.99,227.22,570.22,227.14z"/>
	<path fill="#FEFEFE" d="M580.38,227.17"/>
	<path fill="#FEFEFE" d="M357,230.38c0.64-1.05,1.47-1.91,2.5-2.57c0.03,1.43-0.54,3.75-2.18,3.93
		C357.24,231.4,357.08,230.72,357,230.38z"/>
	<path fill="#FEFEFE" d="M580.19,229.24c1.29,0.23,1.5,0.98,0.64,2.23C579.52,231.23,579.31,230.49,580.19,229.24z"/>
	<path fill="#FEFEFE" d="M570.15,229.98c0.42-0.1,1.25-0.29,1.67-0.39c-0.23,0.62-0.69,1.85-0.92,2.47
		C570.72,231.54,570.34,230.5,570.15,229.98z"/>
	<path fill="#FEFEFE" d="M461.6,230.84c1.37,2.33,1.9,5,2.51,7.6C462.1,236.33,459.44,233.94,461.6,230.84z"/>
	<path fill="#FEFEFE" d="M577.32,233.89c0.38-0.76,1.16-2.27,1.54-3.02c0.94,2.43,1.66,4.95,2.1,7.54
		C579.71,236.92,578.2,235.63,577.32,233.89z"/>
	<path fill="#FEFEFE" d="M467.41,236.12"/>
	<path fill="#FEFEFE" d="M524.45,236.04"/>
</g>
<g>
	<rect fill="#8FC6A6" width="850.32" height="347.76"/>
	<g>
		<path fill="#5DA57E" d="M703.893,57.527h2.678c5.871,7.656,7.295,17.917,4.484,27.056c1.729-6.802,5.434-13.604,12.939-15.086
			c-2.3,5.852-5.187,11.476-8.682,16.701c4.445-4.408,9.917-8.815,16.565-6.251c-7.389,5.036-13.432,11.648-19.55,18.087
			c3.42-2.26,6.289-5.243,8.854-8.436c4.389-1.539,9.424-3.438,12.958,0.742c-8.949,2.489-15.901,8.759-22.438,15.029
			c-0.19,5.794,0.665,11.551,1.101,17.326c3.991-4.825,6.974-11.189,13.091-13.678c4.75-2.147,9.595-4.123,14.327-6.327
			c-6.821,12.255-20.121,19.588-25.707,32.622c-4.162,8.702,2.242,18.125-1.615,26.96c4.578-6.574,9.538-14.078,17.764-16.245
			c5.149-0.988,9.043,3.439,13.072,5.871c3.932,3.609,9.499,1.634,14.229,1.577c-4.712,1.691-9.442,6.365-14.648,4.009
			c-3.534-1.235-6.896-2.944-10.297-4.483c-9.48,4.617-14.156,14.554-18.695,23.483c0.989,0.608,2.964,1.823,3.952,2.432
			c1.976-3.002,4.141-5.89,6.801-8.341c0.532,2.698,1.063,5.434,1.558,8.151c0.607,0.247,1.862,0.779,2.489,1.026
			c-0.475,4.124-0.855,8.246-1.273,12.369c4.998-0.816,10.716-3.363,15.447-0.399c3.325,3.173,5.396,7.41,8.644,10.678
			c3.117,1.767,6.764,2.261,10.127,3.42v1.957l-0.019-1.71c-2.375,0.703-4.75,1.311-7.163,1.805
			c-7.98,1.234-12.636-10.354-20.672-6.935c-7.391,3.325-13.907,8.36-20.481,13.072c-1.083,9.86-0.57,19.817-0.646,29.734
			c8.398-4.027,17.213-9.632,26.941-8.169c5.606,5.319,8.359,13.452,15.903,16.833c-4.067-0.285-8.114-0.494-12.16-0.722
			c-1.92-2.507-3.82-5.034-5.662-7.58c-8.777-0.912-16.587,3.742-24.415,6.935c0,3.515-0.949,7.276,0.209,10.677
			c3.459,4.293,8.036,7.674,10.754,12.578c-2.641-2.052-5.168-4.294-7.638-6.517c-0.38,1.159-1.121,3.477-1.501,4.655
			c-0.646-1.178-1.957-3.496-2.603-4.655c0.133,1.33,0.418,4.009,0.57,5.339c5.396,1.824,11.019,3.059,16.757,2.831
			c3.287,2.146,6.536,4.369,9.69,6.707c-1.292,0.608-3.858,1.824-5.149,2.412c-0.931-1.52-2.794-4.578-3.743-6.099
			c0.038,2.946,0.095,5.91,0.19,8.874c-1.33-3.23-2.717-6.422-4.218-9.557c-0.969,2.167-1.918,4.333-2.868,6.498
			c2.07,1.882,4.161,3.762,6.231,5.644c-2.66,0.038-5.319,0.114-7.979,0.19c-0.304-2.623-0.627-5.245-0.932-7.866
			c-1.577,2.28-3.115,4.579-4.616,6.878l3.476-0.589l0.324,2.432c-1.312-0.59-3.971-1.749-5.301-2.318
			c1.387,4.37,4.237,7.903,7.542,10.981c0.209-2.355,0.588-7.048,0.798-9.404c3.553,5.281,7.752,10.088,11.95,14.858
			c-0.778-0.077-2.317-0.248-3.077-0.323c-0.247,3.838-0.571,7.714-1.597,11.438c-0.285-3.477-0.398-6.955-0.437-10.431
			c-1.653-2.146-3.325-4.255-4.997-6.365c-0.19,2.451-0.588,7.335-0.797,9.786c-0.722-3.078-1.292-6.214-1.843-9.311
			c-3.135-1.747-6.175-3.647-9.216-5.49c1.559,3.724,3.649,7.144,6.024,10.43c-1.5-0.456-4.503-1.386-6.004-1.862
			c-0.835,4.808-0.475,9.709-0.132,14.554c-2.68-4.066-5.416-8.113-8.189-12.083c0.456,4.598,1.026,9.195,1.425,13.793h-1.045
			c-1.235-4.37-2.108-8.834-2.869-13.3c-1.596,2.812-3.135,5.644-4.94,8.322c1.501-6.422,4.883-12.14,7.372-18.182
			c-1.71,1.121-5.149,3.343-6.858,4.445c0.381-5.319,5.148-5.319,9.195-5.224l-3.059-3.42l4.009-1.349
			c-0.438-4.58-0.703-9.177-1.862-13.642l-2.678,4.446l-1.007-2.318c0.323-1.102,1.007-3.287,1.349-4.389
			c-4.427,1.481-7.125,5.055-8.74,9.271c-0.265-1.234-0.798-3.704-1.063-4.958c-3.116,4.047-6.194,8.114-9.557,11.97
			c0.228-1.596,0.684-4.789,0.912-6.384c-4.445,1.691-8.929,3.249-13.565,4.275c5.187-2.794,10.886-4.598,15.731-8.037
			c6.404-3.856,13.28-6.916,20.595-8.588c-1.026-0.171-3.078-0.532-4.104-0.704c1.026-1.538,3.097-4.615,4.124-6.155
			c-4.371,2.603-8.646,5.472-13.585,6.858c4.294-3.458,8.892-6.517,12.919-10.317c-0.664-9.119,0.988-18.314-0.266-27.378
			c-1.805-2.508-4.882-3.609-7.315-5.358c-9.271-4.294-5.586-17.023-12.881-23.123c-2.185,7.069-7.942,11.742-15.181,12.882
			c3.269-4.352,5.605-9.215,7.354-14.363c5.301-1.996,10.962-2.851,16.377-4.542c0.589,1.331,1.729,4.009,2.299,5.358
			c0.569-3.819,1.273-7.601,2.185-11.324c-6.308-4.616-12.844-9.386-20.48-11.514c-4.884,2.3-8.779,6.479-14.003,8.057
			c-3.154,0.436-6.231-0.97-9.291-1.425c3.116-1.331,6.308-2.489,9.309-4.104c4.94-3.762,6.802-11.875,13.965-12.273
			c6.061,0.285,11.627,2.908,17.1,5.358c-0.171-6.402-2.014-12.521-5.244-18.031c2.375,2.489,4.769,4.998,7.143,7.506
			c0.229-3.021,0.495-6.062,0.818-9.083c3.325,2.698,5.966,6.118,8.645,9.424c-0.076-4.389,0.665-9.366-2.66-12.844
			c-4.674-5.643-7.429-12.806-13.015-17.669c-3.951-1.387-7.713,1.254-11.417,2.28c-4.313,2.261-8.758-0.76-12.863-2.108
			c3.268-0.418,6.536-0.76,9.823-1.103c4.084-2.489,7.961-6.536,13.053-6.345c7.618,1.025,12.824,7.276,17.384,12.881
			c-0.437-5.016-0.419-10.051-0.874-15.047c-4.218-6.384-10.47-11.685-18.069-13.396c-6.44-1.425-11.855-5.205-17.042-9.063
			c6.82,1.805,13.851,2.413,20.88,2.527c6.136-0.019,10.754,4.635,15.276,8.15c-0.19-4.389,1.311-9.195-0.608-13.318
			c-7.258-4.826-15.333-8.417-23.654-10.944c1.159-0.893,2.336-1.766,3.515-2.66c4.389,0.665,8.777,1.407,13.147,2.243
			c2.28,2.622,4.542,5.281,6.726,8.018c1.121,0.342,3.382,1.045,4.521,1.387c-5.357-4.085-9.5-9.556-15.162-13.281
			c-3.096-2.451-7.865-4.427-6.972-9.233c5.852,1.824,11.001,5.205,15.979,8.7c-4.084-5.09-8.283-10.088-12.292-15.237
			c5.472-0.228,9.842,2.793,13.452,6.555C706.781,71.72,705.678,64.558,703.893,57.527z M702.848,195.824
			c1.121,2.888,2.375,5.738,3.666,8.568C710.694,200.744,706.629,197.402,702.848,195.824z M712.803,277.217
			c1.123,3.99,1.824,8.094,1.996,12.236c1.653-2.679,3.343-5.339,5.129-7.961C717.535,280.087,715.159,278.643,712.803,277.217z
			 M719.91,277.788c-0.19,2.564,1.044,3.686,3.742,3.363C723.804,278.548,722.551,277.427,719.91,277.788z M710.961,282.291
			 M711.189,289.871 M710.827,293.803c-1.672,2.375-1.273,3.782,1.216,4.237C713.677,295.666,713.279,294.241,710.827,293.803z
			 M705.375,302.639c1.671,3.306,4.54,5.757,6.916,8.587c-0.836-4.92-2.204-9.708-3.99-14.325
			C707.579,298.327,706.096,301.195,705.375,302.639z"/>
	</g>
	<path fill="#5DA57E" d="M590.523,60.035c1.197,0.02,3.61,0.039,4.808,0.057c1.235,3.439,2.469,6.878,3.724,10.297
		c0.228,1.9,0.683,5.68,0.912,7.562c-1.425,1.103-2.85,2.185-4.294,3.268c0.589,0.912,1.178,1.862,1.767,2.793
		c0.893-6.251,6.422-10.354,10.488-14.687c1.349,0.817,4.064,2.432,5.415,3.248c0.039,0.134,0.113,0.399,0.132,0.551
		c-5.319-0.569-10.24,7.562-6.459,11.78l-3.116-1.292c-2.393,2.47-4.351,10.582-8.606,6.365c-4.561-6.137-9.88-11.666-14.536-17.708
		c3.649,0.609,7.486,1.577,10.317-1.558c-3.856,3.382,0.285,6.366,3.116,8.245C594.039,72.48,592.556,66.134,590.523,60.035z"/>
	<path fill="#5DA57E" d="M601.087,67.312"/>
	<path fill="#5DA57E" d="M484.696,75.729c3.952,2.963,7.012,9.139,4.142,13.679c-2.507,1.559-2.774-2.831-3.495-4.199
		C484.355,82.15,484.716,78.883,484.696,75.729z"/>
	<path fill="#5DA57E" d="M576.027,79.604c5.548-0.797,9.766,2.774,14.022,5.642c1.234,2.774,3.515,5.093,4.407,7.999
		c-0.95,0.305-2.812,0.912-3.762,1.217C588.186,87.223,577.794,87.223,576.027,79.604z"/>
	<path fill="#5DA57E" d="M481.068,83.86c1.957,1.805,3.876,3.629,5.756,5.51l-2.982,1.899c0.874,0.475,2.604,1.425,3.478,1.9
		c-0.248,1.464-0.742,4.352-1.008,5.796C481.238,97.673,480.935,88.629,481.068,83.86z"/>
	<g>
		<path fill="#5DA57E" d="M488.8,98.452c0.305-5.7,1.996-11.209,5.283-15.903c3.4,11.267-4.789,21.507-3.876,32.85
			c5.091-7.828,13.584-11.931,20.48-17.86c-1.69,3.63-3.381,7.258-5.091,10.868l2.793-1.653
			c-6.213,5.226-10.089,12.521-14.097,19.437c-4.352,7.543-4.313,16.966-1.046,24.889c3.725-3.344,7.296-7.258,12.236-8.835
			c5.528,0.419,9.898,4.333,15.124,5.813c3.267-0.152,6.478-0.912,9.67-1.52c-3.914,2.736-7.828,7.867-13.205,5.7
			c-4.464-0.398-10.051-4.256-13.661,0c-10.069,11.286-13.204,27.036-11.722,41.761c4.312-6.004,9.727-13.091,17.84-13.243
			c4.75,1.691,8.702,4.978,13.356,6.917c3.325,0.152,6.649-0.399,9.994-0.646c-2.584,1.956-5.034,4.161-7.961,5.566
			c-5.833,0.114-11.495-1.578-17.251-2.261c-5.339,6.631-11,13.223-14.496,21.071c-2.433,8.987-1.255,18.449-1.692,27.644
			c5.966-4.996,11.646-11.78,19.854-12.768c7.144,3.382,12.578,10.071,20.899,11.059c-3.818,0.759-7.58,1.824-11.475,2.052
			c-3.914-1.026-7.144-3.858-11.115-4.637c-6.479,2.718-12.35,7.277-16.645,12.807c-2.754,8.321,1.235,17.062-0.437,25.573
			c1.349,1.197,4.046,3.553,5.396,4.75c-1.976,1.102-3.934,2.184-5.928,3.23c0.665,2.831,1.349,5.68,2.108,8.512
			c0.381,0.209,1.121,0.664,1.501,0.874c1.595-3.287,1.52-7.182,2.697-10.64c0.761,0.208,2.261,0.607,3.002,0.817
			c-1.538-1.919-3.154-3.782-4.788-5.605c4.712,1.063,9.519,1.196,14.326,0.988c-0.893,3.097-1.767,6.193-2.812,9.253
			c-1.064-2.451-2.128-4.883-3.192-7.315c-0.854,1.919-1.69,3.838-2.508,5.757c2.831,3.838,6.023,7.563,7.144,12.331
			c-1.748-2.146-3.381-4.37-4.901-6.688c-0.685,0.057-0.57,7.239-2.736,3.952c-0.854-3.761-1.748-7.543-3.115-11.152
			c-2.166,3.914-1.977,7.295,0.569,10.107c-1.178,0.608-2.337,1.254-3.478,1.919c1.027,1.748,3.097,5.225,4.124,6.973
			c-2.889-2.319-5.701-4.674-8.493-7.087c-0.645-2.184-1.292-4.351-1.958-6.535c-0.398,4.483-0.798,8.948-1.101,13.432
			c0.703-1.501,2.07-4.502,2.773-6.002c3.951,5.414,8.417,10.714,9.709,17.517c-0.608,0.038-1.805,0.114-2.395,0.152
			c-0.285,1.767-0.55,3.533-0.816,5.301c-1.559-5.225-3.705-10.241-6.517-14.895c-0.095,3.229-0.076,6.459-0.209,9.708
			c0.285,1.766,0.589,3.533,0.893,5.319c-2.698-3.895-5.434-7.752-8.302-11.514c0.646,4.372,1.406,8.76,2.127,13.129h-1.063
			c-1.463-4.445-2.413-9.043-3.25-13.642c-1.5,2.869-2.925,5.757-4.578,8.531c0.513-6.649,4.883-11.932,7.524-17.802
			c-0.438-0.855-1.311-2.565-1.749-3.42c1.862-1.121,3.725-2.223,5.586-3.344l-4.294-1.311c1.861-1.995,3.914-3.856,6.327-5.187
			c-2.964-3.135-5.833-6.346-8.797-9.442c1.217-0.096,3.63-0.248,4.844-0.324c0.02-3.02,0.038-6.06,0.077-9.081
			c-2.185,0.779-4.389,1.52-6.592,2.242c2.09-1.805,4.293-3.515,6.498-5.206c-0.096-4.788-0.381-9.576-1.046-14.325
			c0.723-3.686,1.635-7.448,1.198-11.229c-3.972-4.161-9.994-7.087-11.209-13.204c-0.248-6.213,2.432-12.73-0.476-18.658
			c-2.432-0.607-3.477,2.242-5.206,3.325c-3.686,3.819-9.709,4.162-14.231,1.729c2.375-1.064,4.77-2.108,7.163-3.116
			c1.216-2.299,2.433-4.598,3.629-6.896c7.429,0.208,15.466,0.113,21.298,5.491c-0.285-2.964-1.103-5.891-3.191-8.113
			c-5.948-7.391-10.507-16.416-18.658-21.659c-5.719,0.494-11.228,3.326-17.004,2.394c-2.832-1.349-5.321-3.268-7.886-5.015
			c4.351-0.058,9.234,1.69,13.167-0.932c4.008-2.07,7.467-5.433,11.988-6.365c9.652,1.159,15.581,9.576,21.489,16.321
			c-1.122-2.945-2.395-5.814-3.706-8.663c1.216-3.458,2.908-6.784,3.629-10.412c-0.703-4.921-3.705-9.12-5.016-13.87
			c-1.786-4.807-2.146-10.488-5.813-14.383c-5.909-3.362-14.078,2.071-19.361-3.286c-2.659-1.387-3.742-3.515-1.956-6.061
			c1.349,1.272,4.008,3.837,5.338,5.111c0.399-1.786,0.627-3.591,1.064-5.359c2.052-0.532,1.559,3.363,2.261,4.542
			c3.781-0.95,7.504-2.47,11.438-2.603c3.912,0.702,7.237,3.021,10.696,4.844c-1.311-7.41-2.565-15.465-8.417-20.804
			c-4.882-4.56-8.208-10.374-10.28-16.681c6.025,5.871,13.206,10.259,20.16,14.933c-0.209-2.431-0.418-4.882-0.418-7.333
			C487.337,100.712,488.307,99.193,488.8,98.452z M485.513,296.844c-4.104,5.889,0.95,10.431,4.769,14.439
			C489.123,306.344,488.116,301.271,485.513,296.844z M496.552,306.875"/>
	</g>
	<g>
		<path fill="#5DA57E" d="M609.276,86.9c3.875,1.103,10.811-1.311,10.354,4.921c-7.41,0.038-11.855,6.099-17.327,9.956
			c-7.467,4.18-2.014,14.135-2.831,20.9c4.066-4.694,6.916-10.963,12.882-13.566c5.015-2.167,10.126-4.199,14.819-7.087
			c-6.65,12.863-20.729,20.158-26.162,33.781c-2.146,4.787-1.9,10.145-0.208,15.027c1.576,3.858-1.046,7.544-1.862,11.249
			c5.34-5.491,9.252-12.996,17.023-15.503c6.593-2.964,11.761,3.97,16.854,7.011c3.229,0.417,6.516,0.246,9.785,0.266
			c-3.04,2.014-6.042,4.352-9.766,4.807c-6.118-1.481-13.3-8.72-18.733-2.014c-7.676,8.683-15.712,19.645-13.699,31.938
			c2.641-3.914,5.035-8.037,6.346-12.578l1.557-0.114c0.172,1.254,0.495,3.762,0.665,5.016c2.641-3.533,4.275-7.562,4.75-11.969
			c2.413,6.307-2.09,12.254-2.754,18.467l2.45-0.265c-0.816,2.336-1.614,4.674-2.394,7.01c5.092-2.318,10.602-4.561,16.32-3.724
			c6.08,1.615,7.201,8.987,11.97,12.388c2.869,1.215,5.891,1.958,8.891,2.85c-6.592,4.313-15.065,1.804-19.246-4.617
			c-1.52,1.596-2.47,4.066-4.883,4.427c0.951-1.767,1.938-3.515,2.964-5.225c-10.26-0.284-17.632,8.378-25.991,13.204
			c-2.299,9.538-1.026,20.025-1.196,29.943c8.606-3.362,17.65-9.842,27.188-7.429c5.149,4.939,7.999,11.97,13.852,16.396
			c-6.86,0.608-13.396-2.051-16.322-8.492c-8.189-0.247-15.827,3.287-23.008,6.82c-2.622,2.774-1.121,6.955-1.596,10.336
			c3.496,4.199,8.397,7.354,10.696,12.464c-2.793-2.033-5.283-4.465-7.752-6.84c0.19,2.014,0.551,6.024,0.722,8.019
			c7.239,0.968,14.82,1.14,20.938,5.68c0.36,1.026,1.083,3.059,1.462,4.066c3.135,1.671,6.062,3.686,8.873,5.87
			c-1.121,0.951-2.241,1.882-3.344,2.832l4.218,0.912c-0.703,1.463-1.387,2.906-2.071,4.351c0.228-0.97,0.703-2.926,0.932-3.914
			l-2.908,1.083c-0.437,0.779-1.292,2.336-1.709,3.116c-1.083-3.915-2.718-7.809-6.421-9.937c0.912,3.286,1.329,6.612,1.273,9.994
			c-3.439-4.56-3.002-10.449-2.489-15.808c-1.443-0.76-2.698-1.748-3.744-2.964c-0.646,0.703-1.937,2.148-2.564,2.85
			c-0.761-1.311-2.261-3.933-3.002-5.243l-0.893,3.629c-1.881-1.919-3.781-4.104-6.688-4.446c1.255,2.298,2.908,4.35,4.77,6.194
			c3.191,4.199,7.257,8.094,7.77,13.679c-2.204-2.602-4.065-5.471-5.908-8.322c0,1.54,0,4.618,0,6.156
			c3.363,2.868,6.327,6.175,8.911,9.747c-1.196,3.686-1.919,7.485-2.451,11.323c-0.267-0.095-0.798-0.285-1.064-0.38
			c-0.341-0.779-1.063-2.337-1.405-3.135c-0.399-0.703-1.197-2.146-1.615-2.868l1.158-0.799c3.781-2.563-2.375-6.516-3.534-9.137
			c-0.038,3.21-0.057,6.44-0.057,9.651l-2.127-0.133c-0.305-8.682,1.349-18.049-3.078-26.01c-0.704,2.983-1.311,5.967-1.862,8.969
			c-1.444-3.535-1.786-7.316,1.255-10.185c-2.319-1.577-4.618-3.153-6.897-4.73c0.304,1.824,0.931,5.472,1.254,7.295
			c-4.445-2.66-8.265-7.182-12.901-10.107c1.691-0.114,5.073-0.343,6.765-0.438c-1.255-2.812-1.103-5.586,0.475-8.36
			c-3.743,3.212-7.752,6.384-12.692,7.411c2.033-2.014,4.446-3.61,6.878-5.129l-1.141-2.015c0.589,0.305,1.768,0.932,2.337,1.254
			c1.444-1.444,2.907-2.907,4.351-4.332c-0.361-9.613,0.627-19.227-0.475-28.803c-4.901-2.471-11.152-4.674-12.881-10.469
			c-2.242-5.624-1.462-13.546-8.132-16.187c-0.551,7.809-7.999,11.666-14.97,12.311c3.818-4.046,7.637-8.322,7.523-14.25
			c7.296-1.786,14.611-3.876,22.192-4.026c0.531-0.8,1.595-2.357,2.128-3.136c0.075,3.572,0.398,7.145,1.5,10.583
			c3.268-2.299,4.066-5.795,3.136-9.558c-9.215-4.578-16.586-12.406-26.522-15.636c-4.674,0.19-7.81,4.731-12.009,6.459
			c-3.914,2.793-8.625,0.988-12.71-0.227c3.193-1.293,6.556-2.261,9.633-3.838c4.541-3.875,6.365-11.286,12.938-12.445
			c6.27,0.266,12.047,2.926,17.632,5.511c-0.513-1.254-1.54-3.744-2.053-4.998l3.193,0.418c-0.399-0.494-1.178-1.482-1.559-1.976
			c-0.076-4.257-1.311-8.341-3.173-12.142c3.325,1.387,4.275,5.035,6.061,7.791c0.627-2.033,1.273-4.066,1.938-6.1
			c1.331,4.048,2.965,7.961,5.054,11.667c2.222-5.207,4.465-11.914,0.247-16.777c-4.541-5.264-7.353-11.723-11.684-17.119
			c-4.427-4.56-10.242,0.096-15.01,1.424c-3.8,1.597-7.41-1.424-10.564-3.172c7.201,0.779,13.091-2.754,18.771-6.593
			c9.158-2.489,15.447,6.782,21.28,12.254c-0.779-4.617-1.996-9.366-0.457-13.983c-4.768-5.929-10.069-12.407-17.935-14.021
			c-6.536-1.141-12.388-4.351-16.985-9.101c6.84,1.785,13.869,1.995,20.879,2.394c5.853,0.304,9.938,4.864,14.364,8.112
			c-0.531-4.502,1.786-10.127-1.102-13.945c-7.656-3.8-15.237-7.942-23.521-10.26c4.693-5.13,11.4-1.236,16.853,0
			c2.394,3.401,5.244,6.44,8.53,8.986c-0.512-2.45-2.944-6.098,0.495-7.619c2.393-1.52,3.192,1.14,2.318,2.87
			c0.854-0.039,2.545-0.134,3.4-0.172c0.494-1.177,1.462-3.534,1.938-4.712C606.881,90.815,610.91,90.263,609.276,86.9z
			 M600.592,270.436 M630.46,289.909"/>
	</g>
	<g>
		<path fill="#5DA57E" d="M382.309,112.359c4.104,7.999,10.887,14.155,14.915,22.172c4.806-6.25,11.894-9.993,17.669-15.2
			c-2.604,9.044-8.075,16.739-12.995,24.624c-4.142,6.953-8.075,15.693-4.465,23.693c3.478-3.231,6.668-7.239,11.342-8.741
			c5.948-0.455,10.47,4.294,15.922,5.739c3.477-0.153,6.859-1.216,10.259-1.863c-3.286,2.832-6.972,5.13-10.886,6.993
			c-4.427-1.008-8.854-3.82-13.453-2.964c-6.536,2.945-9.481,10.146-12.482,16.188c-3.382,6.536-2.622,14.021-2.432,21.108
			c4.636-5.167,9.291-11.798,16.759-12.635c5.68,0.646,9.688,5.586,15.122,7.087c3.098-0.19,6.176-0.741,9.253-1.197
			c-2.698,2.279-5.016,6.003-8.987,5.794c-4.958,0.304-9.594-1.786-14.458-2.337c-5.852,3.534-9.101,9.899-13.015,15.276
			c-6.783,9.082-3.478,20.957-4.598,31.406c5.985-5.036,11.818-12.578,20.33-12.426c6.688,2.906,11.323,9.785,19.208,10.146
			c-2.375,0.779-4.77,1.558-7.239,1.938c-0.381,0.912-1.14,2.754-1.521,3.686c-4.142-2.774-8.245-8.189-13.736-6.65
			c-5.339,2.508-9.688,6.668-13.926,10.678c-5.491,4.503-2.072,12.502-2.908,18.601c9.083,3.115,18.449,5.528,28.139,5.452
			c-1.729,0.228-5.149,0.685-6.858,0.912c-0.171,6.366,4.351,10.337,9.518,13.015c-1.159-0.038-3.476-0.133-4.636-0.171
			c-0.17,2.907-0.341,5.853-1.196,8.664c-1.159-7.866-2.47-18.145-10.108-22.115c0.342,1.709,1.026,5.148,1.368,6.858
			c-2.66-4.408-5.528-9.176-11.515-8.606c3.934,6.744,11.438,11.551,11.971,19.93c-2.489-3.476-4.426-7.352-7.391-10.468
			c0.913,4.351,2.014,8.816,4.94,12.312c3.155,3.629,1.976,8.683,1.406,12.996c-0.569-7.314-3.097-14.212-8.834-19.076
			c-1.501,4.142,1.083,7.581,2.642,11.153c-6.612-2.355-3.155-10.697-8.494-13.566c-4.179,8.265,6.536,13.3,4.333,21.165
			l-1.045-0.246c-0.438-7.409-8.512-12.406-6.099-20.557c-8.835,5.149,1.045,16.092-5.073,23.046
			c-1.311-3.934-2.205-7.999-2.774-12.122c-2.507,2.812-4.978,5.642-7.771,8.188c-1.292-3.249-2.166-6.65-1.958-10.184
			c4.352-3.705,4.618-9.366-1.31-12.16c5.719,2.243,9.708-2.09,13.261-5.586c2.414,0.209,0.19,3.781-0.208,4.997
			c-1.159,3.117-2.128,6.271-3.021,9.462c-0.627-0.208-1.843-0.646-2.451-0.854c0.76-1.635,2.299-4.883,3.059-6.517
			c-5.207-0.608-3.287,6.346-5.985,9.158c-1.369,1.919-4.028,7.238-0.057,7.619c0.665-0.817,1.976-2.471,2.641-3.287
			c6.65-6.518,11.494-16.377,6.839-25.384l-1.026,4.009c-1.577-1.597-3.134-3.193-4.692-4.807c-0.438,2.812-0.418,5.643,0.038,8.473
			c-1.69,0.646-5.073,1.976-6.765,2.622c1.559-2.964,3.079-5.947,4.599-8.949c-4.636,2.831-8.188,6.935-11.134,11.419l2.261,0.056
			c-5.282-0.38-9.747,2.337-13.964,5.074c2.146-6.099,9.441-5.301,13.299-9.5c-2.527-0.627-5.035-1.236-7.562-1.862
			c3.097-0.494,6.175-1.026,9.252-1.615c-3.229-2.394-7.486-0.95-11.152-1.558c9.594-1.71,18.923-4.142,28.233-7.067
			c0.38-4.979,0.095-9.957-0.912-14.839c-1.064-4.218,1.957-8.36,1.026-12.578c-3.8-4.293-9.899-6.953-11.343-12.995
			c-2.545-6.479,3.458-14.419-1.938-19.969c-3.686,6.574-11.532,9.367-18.619,6.765c2.489-1.388,5.072-2.603,7.675-3.743
			c1.311-2.395,2.583-4.789,3.856-7.201c7.392,0.018,14.687,1.367,21.622,3.952c-6.953-9.025-12.597-19.398-21.583-26.637
			c-4.978-1.407-9.86,2.736-14.99,2.393c-4.237,0.475-7.125-2.964-10.032-5.395c3.25,0.228,6.498,0.665,9.767,0.607
			c4.977-1.709,8.587-6.327,13.774-7.466c7.903-0.248,13.831,6.024,18.524,11.609c1.388-2.984,3.079-5.871,3.991-9.063
			c0.075-3.61-2.375-6.555-3.649-9.785c-3.058-6.06-2.829-13.623-7.371-18.923c-5.129-3.438-11.875,1.652-17.214-1.482
			c-2.203-1.615-4.027-3.647-5.908-5.585c3.096,0.912,6.175,1.919,9.253,2.926c3.856-1.387,7.676-2.964,11.722-3.609
			c4.483,0.018,7.524,3.818,10.981,6.117c0.134-6.175,0.666-12.767-2.736-18.276C383.354,125.07,382.385,118.686,382.309,112.359z
			 M395.038,277.389c1.407,5.889,3.307,11.723,6.688,16.814c3.743-3.287,1.348-7.923,0.703-11.951
			C399.978,280.619,397.508,278.984,395.038,277.389z M393.993,288.883c2.395-0.607,2.756-2.09,1.083-4.446
			C392.682,285.064,392.322,286.547,393.993,288.883z"/>
	</g>
	<g>
		<path fill="#5DA57E" d="M301.067,203.005c-3.268-5.642-4.56-12.121-4.104-18.581c3.458,8.606,11.038,14.517,14.914,22.856
			c4.711-3.078,9.31-6.384,13.148-10.525c-1.843,12.768-13.167,21.185-16.739,33.325c3.115-6.858,7.904-13.413,14.99-16.472
			c5.529-0.399,10.127,3.534,15.351,4.711c4.01,0.38,7.752-1.481,11.552-2.489c-2.07,2.224-3.989,4.617-6.402,6.479
			c-5.853,2.26-12.197,0.741-18.258,0.569c-1.9,2.356-3.818,4.693-5.719,7.049c3.591-0.723,7.2-2.641,10.887-1.768
			c4.408,2.299,7.295,6.555,11.418,9.253c3.268,0.874,6.669,0.854,10.033,1.197c-2.604,1.443-4.96,3.837-8.095,3.856
			c-5.548,0.304-10.088-3.496-15.18-4.958c-2.261,0.228-4.027,1.843-5.928,2.926c4.408,1.861,9.063,3.001,13.851,3.363
			c-2.983,2.166-5.909,4.788-9.671,5.491c-2.831-0.438-5.472-1.653-8.132-2.604c-6.707,3.971-9.082,11.779-12.748,18.164
			c0.78,2.925-0.171,6.744,2.128,9.004c7.751,3.648,16.339,4.903,24.851,4.598c-2.317,0.741-4.636,1.425-6.973,2.052
			c0.495,5.567,4.959,8.646,8.969,11.818c-1.064-0.247-3.155-0.722-4.219-0.95c-0.039,2.774-0.133,5.547-0.322,8.321
			c-1.881-2.431-1.426-5.586-1.71-8.436c-3.363-3.553-2.869-12.653-9.443-11.077c0.894,1.406,2.718,4.255,3.629,5.681
			c-2.831-1.691-4.484-4.58-6.289-7.22c-1.557-0.379-4.712-1.14-6.288-1.52c4.122,5.662,9.062,10.792,12.178,17.138
			c-0.589,0.133-1.767,0.437-2.336,0.57c-1.121-3.041-2.433-6.042-5.187-7.98c0.76,2.925,1.653,5.832,2.679,8.682l-0.362,0.248
			l-1.101,0.741c-0.646-0.932-1.919-2.812-2.546-3.762c-4.008,3.097,0.95,6.973,1.9,10.222c-1.709-1.425-3.363-2.906-4.978-4.427
			c-0.38-2.755-1.349-5.358-3.191-7.448c-3.439,7.163,5.453,11.989,3.933,19.246c-2.071-6.935-8.113-12.35-7.049-20.101
			c-6.745,4.579-1.482,12.159-1.292,18.505c-0.589,0.076-1.788,0.228-2.375,0.304l-0.057,3.002
			c-1.159-2.413-2.109-4.921-2.964-7.448c0.722-1.843,1.387-3.686,2.033-5.548c-2.963,1.672-5.396,4.066-7.828,6.422
			c-0.532-5.794,9.652-8.625,5.586-13.793l2.507,1.615c1.805-4.313,3.211-9.423,0.057-13.49c-3.42-4.256,3.742-8.72,0.133-13.205
			c-3.78-3.173-9.329-4.826-11.267-9.747c-1.253-6.365,1.71-14.819-4.502-19.228c-2.147,7.334-9.822,11.058-17.099,9.937
			c4.483-3.154,8.625-6.859,9.594-12.559c2.812-0.57,5.624-1.121,8.436-1.691c-5.853-5.263-12.729,0.342-19.284,0.248
			c-4.598,0.398-7.676-3.667-11.001-6.137c4.465,0.759,9.52,2.83,13.642-0.059c4.084-2.185,7.562-6.06,12.405-6.421
			c6.29,1.044,11.192,5.395,15.561,9.708c-1.463-4.939-1.766-10.526-4.826-14.8c-3.097-3.819-8.303-1.444-12.426-1.558
			c-4.921,0.912-8.759-2.926-11.666-6.308c3.154,0.816,6.214,1.976,9.442,2.451c4.58-1.16,9.025-3.477,13.871-3.212
			c6.06,2.356,9.518,8.209,12.595,13.548C303.954,214.766,304.259,208.383,301.067,203.005z M306.614,277.996
			c-0.038,1.026-0.094,3.041-0.132,4.067c-0.684,0.664-2.052,1.995-2.756,2.66c0.267,1.14,0.78,3.439,1.026,4.598
			c0.893-1.216,1.292-4.218,3.439-3.192c1.672,2.128,3.268,4.332,4.846,6.554C315.449,286.661,312.334,280.466,306.614,277.996z"/>
	</g>
	<path fill="#5DA57E" d="M207.893,209.333c4.96,11.209,17.138,18.923,16.872,32.166c7.979-9.252,19.17,2.489,28.993-1.349
		c-3.287,2.583-6.498,5.548-10.641,6.688c-3.571,0.095-7.142-1.331-10.658-0.571c-6.137,6.081-10.26,14.098-12.73,22.287
		c-0.854,8.968,9.253,12.729,13.396,19.417c-2.338-0.779-4.409-2.014-6.213-3.743c-0.988,0.152-2.946,0.457-3.934,0.608
		c-1.271-2.356-2.583-4.693-3.97-6.972c-1.463,9.632,8.588,18.751,1.805,27.948c-0.665-6.878,1.159-14.991-5.053-19.874
		c0.131-1.045,0.418-3.116,0.55-4.162c-2.659,0.228-4.275,3.782-6.763,3.287l0.038-2.109c-3.344,1.179-6.022,3.819-9.595,4.427
		c5.054-5.186,10.924-9.575,15.409-15.313c-3.193-7.105-12.406-9.271-14.555-17.004c0.134-7.182,1.862-14.972-2.925-21.186
		c-2.983,8.037-12.008,12.787-20.139,9.481c6.194-2.051,10.05-6.688,12.483-12.501c7.732,0.305,17.213-1.558,22.932,4.921
		c0.304,4.921,0.797,9.823,1.292,14.744c0.247-0.02,0.722-0.038,0.969-0.058C216.197,236.141,206.716,223.772,207.893,209.333z"/>
	<path fill="#5DA57E" d="M163.892,236.179c2.546-5.376,5.775-10.393,8.721-15.541c-0.476,11.969-8.456,22.723-5.833,34.958
		c-1.064,0.532-2.147,0.703-3.287,0.551C162.504,249.573,160.927,242.487,163.892,236.179z"/>
	<path fill="#5DA57E" d="M132.428,262.665c1.178-6.517,1.558-13.205,3.818-19.457c1.463,8.057-0.19,16.245-0.912,24.281
		c-0.418,4.599-4.636,7.013-8.911,7.031c1.082,3.705,3.439,6.726,5.605,9.841c-1.387,4.352-3.573,8.379-5.586,12.464
		c0.076-4.237,1.463-8.264,3.457-11.97c-3.629-4.692-6.213-10.107-10.145-14.573c-2.679-2.888-2.509-7.144-0.722-10.449
		c3.174-2.033,7.087-1.349,10.659-1.501C130.604,259.757,131.516,261.202,132.428,262.665z"/>
	<path fill="#5DA57E" d="M163.131,256.869c0.741-0.779,2.242-2.337,2.983-3.117c-0.418,6.822,0.817,14.858-3.819,20.577
		c1.749,4.617-1.253,12.197,3.933,14.534c-0.551,0.438-1.425,0.152-1.425,0.152c-4.541,0.019-4.673-4.864-6.327-7.961
		c0.133,1.958,0.437,5.909,0.569,7.885l-3.058-0.361c0.266-4.18,1.045-8.302,1.387-12.464c-2.128-3.799-7.675-7.676-4.18-12.406
		c2.888-1.919,6.289-1.501,9.31-0.209C162.656,261.278,162.808,259.054,163.131,256.869z"/>
	<path fill="#5DA57E" d="M70.49,260.821c4.484-2.756,10.83-5.149,14.554,0.246c2.033,6.404-3.496,11.229-7.01,15.732
		c-2.699-3.325-5.511-6.593-7.543-10.394V260.821z"/>
	<path fill="#5DA57E" d="M94.22,262.721c1.312-5.814,9.29-5.454,13.376-3.002c3.686,4.902,0.076,10.734-3.763,14.193
		c-0.018,2.888-0.379,5.776-1.747,8.359C103.283,274.121,92.529,270.91,94.22,262.721z"/>
	<path fill="#5DA57E" d="M286.608,278.927c3.818-1.443,7.618-2.906,11.514-4.179c-1.254,1.786-2.546,3.533-3.896,5.243l1.103,2.243
		l1.273-3.458c0.988,1.026,1.996,2.051,2.983,3.077c-1.861,1.217-5.623,3.629-7.505,4.826c-1.424-2.545-0.93-5.472,0.229-8.017
		c-3.307,2.792-6.403,5.832-9.157,9.176l1.595,1.558c-4.73,0.114-8.948,2.261-13.337,3.724c2.964-3.419,7.467-4.427,11.418-6.213
		c-0.152-0.893-0.455-2.659-0.608-3.553C283.682,281.891,285.145,280.41,286.608,278.927z"/>
	<g>
		<path fill="#5DA57E" d="M461.118,281.302c6.973-0.646,13.242-3.666,19.531-6.478c-2.812,2.773-4.199,6.365-4.179,10.297
			c1.197-1.501,3.629-4.522,4.826-6.022c0.626,0.854,1.235,1.728,1.843,2.603c-4.065,2.868-7.504,7.466-12.787,7.961
			c2.146,1.12,4.313,2.203,6.441,3.362c-1.521,0.893-4.599,2.64-6.137,3.534l-0.779-1.292c-0.666-1.064-1.35-2.109-2.033-3.135
			c-1.008,4.693-2.585,9.385-5.682,13.129c0.514-1.976,1.559-5.948,2.072-7.943c-1.539,1.312-4.637,3.953-6.175,5.263
			c1.367-3.04,4.617-5.908,2.602-9.594l4.485,0.285c-1.216-0.969-2.451-1.919-3.687-2.85c-1.425,0.931-4.274,2.774-5.7,3.705
			c0.722-1.102,2.148-3.326,2.85-4.446c2.509,0.266,4.181-0.569,5.016-2.508c-1.367,0.438-4.123,1.329-5.509,1.767l0.493,0.741
			c-2.393-0.038-4.616,0.076-6.953,0.133c-0.038-0.227-0.134-0.665-0.172-0.874c5.397-2.413,11.059-4.104,16.568-6.175
			C465.697,282.442,463.38,281.967,461.118,281.302z M466.875,287.344c-0.798,1.691-1.595,3.382-2.375,5.073
			c2.547-1.482,5.149-2.851,7.81-4.104c0.912-2.604,1.689-5.244,2.374-7.923C470.751,280.714,469.06,284.685,466.875,287.344z"/>
	</g>
	<path fill="#5DA57E" d="M568.56,280.428c6.004,0.779,11.856-1.044,16.416-5.053c1.217,0.835,2.432,1.69,3.648,2.545l-3.173,0.38
		c-0.476,3.153-2.071,5.376-4.808,6.668l2.755-5.756c-5.472,2.583-7.486,8.853-12.578,11.893c0.286-1.405,0.855-4.199,1.141-5.586
		c-3.991,1.331-7.999,2.718-12.104,3.706c4.333-3.591,10.241-4.142,14.839-7.334c-1.558-0.171-4.674-0.513-6.232-0.684
		L568.56,280.428z"/>
	<path fill="#5DA57E" d="M484.582,283.468"/>
	<path fill="#5DA57E" d="M509.548,280.638c3.857-4.18,6.916,0.95,8.379,3.914c3.211,1.672,6.175,3.819,8.55,6.593
		c-2.604-0.684-5.017-1.9-7.03-3.724c0.095,0.894,0.286,2.697,0.381,3.591l-3.801-0.551l0.361-2.66
		c-0.722,0.38-2.147,1.159-2.85,1.538c-0.115-0.95-0.323-2.85-0.438-3.799c0.646-0.892,1.9-2.678,2.546-3.572l-2.242,2.527
		C512.075,283.24,510.802,281.949,509.548,280.638z"/>
	<path fill="#5DA57E" d="M691.885,289.814c3.268-3.913,7.581-6.725,11.172-10.316c0.209,1.083,0.666,3.229,0.874,4.313
		c-3.211,1.406-6.289,3.078-9.292,4.864l0.932,0.303C694.659,289.188,692.816,289.605,691.885,289.814z"/>
	<path fill="#5DA57E" d="M706.211,280.903l1.253,0.229c-2.032,4.541-4.084,9.12-4.9,14.078c-0.761-2.679-1.425-5.376-1.957-8.113
		c0.835-0.817,2.489-2.47,3.325-3.287C704.502,283.089,705.64,281.625,706.211,280.903z"/>
	<path fill="#5DA57E" d="M484.582,283.468"/>
	<path fill="#5DA57E" d="M587.655,289.681c-1.045-2.945,3.268-6.327,5.794-6.802C593.297,285.881,590.523,288.902,587.655,289.681z"
		/>
	<path fill="#5DA57E" d="M735.432,285.064c1.976-0.854,3.667-0.608,5.092,0.761c-0.76,0.931-2.26,2.774-3.021,3.705
		c0.304,3.134,0.761,6.289,1.121,9.423C734.957,295.21,735.66,289.871,735.432,285.064z"/>
	<path fill="#5DA57E" d="M224.385,285.406c3.401-0.835,7.106,4.029,6.498,7.183C227.882,292.417,224.461,288.294,224.385,285.406z"
		/>
	<g>
		<path fill="#5DA57E" d="M289.762,283.773c-0.114,1.443-0.342,4.332-0.457,5.776c2.888-1.559,5.51-5.055,9.139-4.181
			c0.666,2.223,0.381,4.333-0.835,6.327c-0.722,1.064-2.147,3.211-2.851,4.275l-0.399-4.028l-1.216,0.171
			c-0.475,3.021-1.729,5.757-3.762,8.017c0.741,2.756,1.577,5.548,1.026,8.417c-0.779-2.052-2.356-6.174-3.135-8.247
			c-1.026,1.312-3.078,3.934-4.104,5.244c0.874-3.533,1.767-7.048,2.564-10.582l1.045,1.007c0.152,0.646,0.457,1.938,0.608,2.584
			c3.115-0.341,4.199-4.751,4.142-7.467c-1.956,1.254-3.534,2.889-4.75,4.883c0.513-1.824,1.521-5.491,2.015-7.315
			c-3.478,2.983-6.29,6.821-10.392,9.063c1.671-3.097,3.989-5.756,6.345-8.322C286.438,287.535,288.11,285.673,289.762,283.773z
			 M294.759,290.308"/>
	</g>
	<path fill="#5DA57E" d="M361.733,286.052"/>
	<path fill="#5DA57E" d="M509.623,285.33c0.589,0.247,1.767,0.76,2.356,1.008l-0.836,1.52l-1.767-0.057l-0.779-1.539L509.623,285.33
		z"/>
	<path fill="#5DA57E" d="M574.81,290.877c5.491-3.742,11.001-7.409,16.549-11.095l-5.034,6.212l-4.009,2.393
		c1.349,0.818,2.698,1.635,4.027,2.489c-2.564,4.618-4.787,9.406-7.999,13.624l-2.47-4.238c4.806,1.064,5.472-4.54,7.011-7.389
		c-1.482,1.291-4.445,3.856-5.928,5.148c0.779-3.591,2.699-6.612,5.776-9.063c-1.444,0.437-4.351,1.292-5.814,1.729L574.81,290.877z
		"/>
	<g>
		<path fill="#5DA57E" d="M592.632,287.687c1.806-4.047,5.757-4.56,8.74-1.653c1.369,5.129,3.439,9.974,7.087,13.964
			c-3.78-2.223-7.372-4.75-11.039-7.145c-0.17,1.635-0.513,4.922-0.684,6.574c0.817-1.159,2.432-3.458,3.23-4.597
			c1.101,4.236,4.692,7.03,6.744,10.734c1.52,3.078,0.285,6.537,0.228,9.785c-0.36,0.057-1.063,0.151-1.425,0.189
			c0-1.766,0-5.281,0-7.049l-2.527,1.199c-1.026-2.167-2.033-4.333-3.04-6.479c-0.608,1.216-1.786,3.648-2.375,4.845
			c0.19-4.389-1.767-8.189-4.446-11.476c0.152,1.882,0.438,5.624,0.57,7.505c-1.539,2.963-4.313,5.205-7.448,2.888
			c3.097-2.736,4.902-6.308,4.864-10.431c-1.824,1.369-3.591,2.774-5.377,4.18c1.14-4.008,1.369-8.455,3.914-11.875
			c0.038,1.9,0.114,5.718,0.152,7.638c1.862-3.154,4.58-8.189,9.024-5.833l0.38-1.121
			C597.553,289.073,594.285,288.142,592.632,287.687z M604.925,306.724"/>
	</g>
	<path fill="#5DA57E" d="M740.904,285.615c2.603-0.684,6.194,2.261,5.776,4.998C744.266,291.296,740.448,288.104,740.904,285.615z"
		/>
	<path fill="#5DA57E" d="M212.226,298.82c-2.223-2.926-6.441-7.885-3.307-11.209C210.914,291.03,211.428,295.002,212.226,298.82z"/>
	<path fill="#5DA57E" d="M475.196,289.663c2.243-1.122,6.708-3.345,8.95-4.465c-2.964,4.255-0.95,10.488-4.732,14.079
		c0.095-1.863,0.267-5.587,0.343-7.449C478.236,291.106,476.717,290.384,475.196,289.663z"/>
	<path fill="#5DA57E" d="M156.496,283.875c1.04,1.093,2.124,2.24,2.55,5.065c0.98,6.476,0.011,16.76-2.139,19.659
		C155.265,301.052,155.168,291.594,156.496,283.875z"/>
	<path fill="#5DA57E" d="M214.392,286.661c4.56,4.616,3.647,13.128,0.721,18.581C214.695,299.048,214.677,292.854,214.392,286.661z"
		/>
	<path fill="#5DA57E" d="M566.508,291.353"/>
	<path fill="#5DA57E" d="M690.954,289.529l0.931,0.285c-0.437,0.152-1.292,0.474-1.709,0.627L690.954,289.529z"/>
	<path fill="#5DA57E" d="M695.571,288.978c1.672,0.495,3.343,1.007,5.016,1.54c-5.187,4.787-7.448,12.083-5.948,18.98
		c-1.405-2.963-2.754-5.967-4.103-8.93c-0.894,4.123-1.824,8.265-3.401,12.197c0.076-4.54,0.665-9.043,1.103-13.547
		c-2.87,0.361-5.758,0.742-8.626,1.141c1.501-1.331,2.982-2.66,4.484-3.971c-0.685-0.627-2.071-1.862-2.774-2.489
		c2.963-1.084,5.928-2.205,8.854-3.458c-0.817,2.241-1.463,4.541-1.938,6.877c0.874-0.531,2.64-1.576,3.515-2.108
		c0.361,0.988,1.083,2.965,1.424,3.953c0.437-1.178,1.311-3.515,1.749-4.693c-0.799,0.19-2.375,0.551-3.173,0.741l0.892-1.368
		C693.653,292.247,694.622,290.613,695.571,288.978z"/>
	<path fill="#5DA57E" d="M738.586,288.731l1.539-0.551c2.05,3.344,5.624,4.902,8.949,6.631c-1.292,0.019-3.876,0.076-5.149,0.095
		c0.019,1.026,0.095,3.078,0.133,4.104C742.366,295.495,740.58,292.056,738.586,288.731z"/>
	<path fill="#5DA57E" d="M154.506,291.677"/>
	<path fill="#5DA57E" d="M372.6,290.327l1.083-0.151c0.114,3.229-3.439,7.675-6.649,8.017
		C367.013,294.925,370.51,292.531,372.6,290.327z"/>
	<path fill="#5DA57E" d="M374.291,297.339c-0.799-2.243,1.083-6.271,3.667-6.005C378.433,293.5,376.8,297.452,374.291,297.339z"/>
	<path fill="#5DA57E" d="M566.508,291.353"/>
	<path fill="#5DA57E" d="M568.218,293.614c2.925-0.913,5.795-1.937,8.702-2.925c-1.368,3.571-2.774,7.219-2.261,11.133l-4.179,0.171
		l1.823-3.496l-1.253-0.703c-1.577,1.595-3.154,3.173-4.769,4.711c1.197-2.032,2.488-4.008,3.781-5.984
		C569.605,295.799,568.674,294.336,568.218,293.614z"/>
	<path fill="#5DA57E" d="M728.402,292.018"/>
	<path fill="#5DA57E" d="M514.944,292.95c4.559-1.026,0.607,6.459-0.647,1.443L514.944,292.95z"/>
	<path fill="#5DA57E" d="M469.668,301.727c2.146-2.812,4.217-5.68,6.688-8.226c-0.722,3.23-2.318,6.117-4.256,8.759
		c0.323,1.424,0.931,4.275,1.254,5.7l-1.406,0.095c-0.703-1.501-2.109-4.522-2.812-6.022c-0.74,3.971-1.026,8.645-4.921,10.924
		c1.083-3.933,2.223-7.866,3.667-11.684c0.494-1.501,1.501-4.503,1.995-6.004C469.821,296.882,469.724,300.112,469.668,301.727z"/>
	<path fill="#5DA57E" d="M317.539,295.78c4.808,2.509,5.283,8.625,3.23,13.128C319.876,304.481,318.831,300.092,317.539,295.78z"/>
	<path fill="#5DA57E" d="M502.119,297.072c1.197-0.189,3.628-0.57,4.844-0.779c1.862,2.604,3.744,5.187,5.567,7.81
		c-1.178,3.989-1.92,8.113-2.697,12.216c-1.388-6.08-1.141-12.596-6.403-17.004c0.038,2.984,0.076,5.948,0.132,8.93l-1.938-0.209
		C501.986,304.481,500.124,300.13,502.119,297.072z"/>
	<path fill="#5DA57E" d="M576.957,298.022"/>
	<path fill="#5DA57E" d="M373.588,299.333c4.883,0.968-0.057,8.682-3.705,8.245C370.435,304.862,371.935,301.67,373.588,299.333z"/>
	<path fill="#5DA57E" d="M684.134,301.024"/>
	<path fill="#5DA57E" d="M570.594,302.943"/>
	<path fill="#5DA57E" d="M575.134,303.095c3.477,0.683,1.046,9.157-2.432,8.605C572.682,308.794,573.804,305.678,575.134,303.095z"
		/>
	<path fill="#5DA57E" d="M579.922,304.615"/>
	<path fill="#5DA57E" d="M714.248,306.724c2.432,0.285,4.864,0.552,7.295,0.798c-0.114,3.686-1.311,7.181-2.452,10.641
		C720.195,313.335,717.82,309.688,714.248,306.724z"/>
	<path fill="#5DA57E" d="M594.931,310.657c-0.247-1.748,0.475-2.469,2.128-2.223c2.147,2.07,3.744,5.472,3.059,8.474
		C597.496,316.641,596.508,312.557,594.931,310.657z"/>
	<path fill="#5DA57E" d="M585.659,310.144c0.589,0.229,1.767,0.703,2.375,0.932l-0.797,1.538l-1.768,0.019l-0.797-1.52
		L585.659,310.144z"/>
	<path fill="#5DA57E" d="M590.752,309.137c3.363,2.298,3.229,6.935,3.154,10.582h-0.646
		C591.207,316.641,589.82,312.841,590.752,309.137z"/>
</g>
</svg>
